<svg xmlns="http://www.w3.org/2000/svg" viewBox="186.6 135.6 424.5 318" enable-background="new 186.6 135.6 424.5 318"><radialGradient id="a" cx="368.219" cy="223.943" r="159.717" gradientTransform="matrix(.682 0 0 .825 107.741 146.851)" gradientUnits="userSpaceOnUse"><stop offset=".005" stop-color="#00f"/><stop offset=".125" stop-color="#0300FD"/><stop offset=".211" stop-color="#0C00F8"/><stop offset=".286" stop-color="#1C01EE"/><stop offset=".355" stop-color="#3201E0"/><stop offset=".42" stop-color="#4F02CF"/><stop offset=".482" stop-color="#7203B9"/><stop offset=".542" stop-color="#9C04A0"/><stop offset=".598" stop-color="#CC0583"/><stop offset=".65" stop-color="#FF0664"/><stop offset=".754" stop-color="#FF4D48"/><stop offset=".996" stop-color="#FFFC01"/><stop offset="1" stop-color="#ff0"/></radialGradient><path opacity=".4" fill="url(#a)" enable-background="new" d="M469.6 292.1c-20-25.7-43.2-50.3-72.3-59.1-28.7-8.7-65.5-7.7-92.8 7.3-36.1 19.9-63.9 55.7-63.5 105.4.3 43.5 30.8 80.1 64.9 88.8 28.9 7.5 66.5-1.3 77.1-38.2 5.3-18.4 4.8-41.5-6.7-56.4-9-11.9-28.2-18.7-40.2-11.8 22.5-20.7 48.4 5.9 55.6 31.3 7.2 25.3-5.8 96.3-89.1 80.1-19.8-4.9-37-18.7-51-37-16.1-20.9-19.3-42.2-15.9-69.8 3.4-27.9 13-45.6 29.3-65.5 7.9-9.8 18.4-14.9 27.5-22.4 10.8-8.9 21.2-14.3 34.2-18 30.9-9 64.9-6.3 94.9 6.3 24 10 48.3 32.6 61.5 59.2"/><path fill="#75FE2A" d="M557.9 254"/><g opacity=".87"><linearGradient id="b" gradientUnits="userSpaceOnUse" x1="871.466" y1="106.972" x2="1275.419" y2="106.972" gradientTransform="matrix(-.715 .129 .129 .715 1134.729 65.352)"><stop offset="0" stop-color="#f00"/><stop offset=".004" stop-color="#FF0500"/><stop offset=".049" stop-color="#FF3000"/><stop offset=".092" stop-color="#FF5200"/><stop offset=".133" stop-color="#FF6B00"/><stop offset=".17" stop-color="#FF7A00"/><stop offset=".201" stop-color="#FF7F00"/><stop offset=".251" stop-color="#FF9200"/><stop offset=".35" stop-color="#FFB300"/><stop offset=".404" stop-color="#FFBF00"/><stop offset=".439" stop-color="#E3CA03"/><stop offset=".542" stop-color="#93EB0C"/><stop offset=".59" stop-color="#73F80F"/><stop offset=".616" stop-color="#6AF11D"/><stop offset=".665" stop-color="#54E041"/><stop offset=".732" stop-color="#2FC47B"/><stop offset=".808" stop-color="#00A0C6"/><stop offset=".892" stop-color="#1C64CB"/><stop offset="1" stop-color="#4210D2"/></linearGradient><path fill="url(#b)" d="M226.8 254.7c11.2 16.2 23.3 40.1 37.8 35.6 13.8-3.9 21-26.6 32-38.3 10.4-13.7 24.4-18.8 38.1-9.8 13.7 7.9 25.2 27 38.4 39.4 25.7 27 54.6 42.5 82 39.8 27.5-2.6 52.2-23 72.8-51.3l-2-4.6c-20.1 28.3-44.3 48.8-71.2 51.8-26.9 3.1-55.4-11.6-81-38-13-12.1-24.6-31.1-38.8-39-13.9-9-28.4-3.5-38.7 10.5-11.1 11.9-18.2 34.8-31.6 38.8-14.4 4.8-26.4-18.9-37.8-34.9z"/><linearGradient id="c" gradientUnits="userSpaceOnUse" x1="873.076" y1="91.885" x2="1051.09" y2="91.885" gradientTransform="matrix(-.715 .129 .129 .715 1134.729 65.352)"><stop offset="0" stop-color="#f00"/><stop offset=".004" stop-color="#FF0500"/><stop offset=".049" stop-color="#FF3000"/><stop offset=".092" stop-color="#FF5200"/><stop offset=".133" stop-color="#FF6B00"/><stop offset=".17" stop-color="#FF7A00"/><stop offset=".201" stop-color="#FF7F00"/><stop offset=".251" stop-color="#FF9200"/><stop offset=".35" stop-color="#FFB300"/><stop offset=".404" stop-color="#FFBF00"/><stop offset=".439" stop-color="#E3CA03"/><stop offset=".542" stop-color="#93EB0C"/><stop offset=".59" stop-color="#73F80F"/><stop offset=".616" stop-color="#6AF11D"/><stop offset=".665" stop-color="#54E041"/><stop offset=".732" stop-color="#2FC47B"/><stop offset=".808" stop-color="#00A0C6"/><stop offset=".892" stop-color="#1C64CB"/><stop offset="1" stop-color="#4210D2"/></linearGradient><path fill="url(#c)" d="M391 246.5c10.2-11.3 23.7 1.7 34.4 11.9 5.6 5.9 10.6 14.2 16.7 18.5 6.2 4.6 12.4.4 17.2-5.5 16.5-31 44.3-36.2 64.6-4.6l1.4-4.2c-21.9-33.2-50.7-25.3-66.9 6.4-4.6 6-10.3 10.1-16.1 6-5.8-3.9-11-12.1-16.7-17.8-10.8-9.9-24.5-22.4-34.6-10.7z"/><linearGradient id="d" gradientUnits="userSpaceOnUse" x1="867.695" y1="100.754" x2="1031.177" y2="100.754" gradientTransform="matrix(-.715 .129 .129 .715 1134.729 65.352)"><stop offset="0" stop-color="#f00"/><stop offset=".004" stop-color="#FF0500"/><stop offset=".049" stop-color="#FF3000"/><stop offset=".092" stop-color="#FF5200"/><stop offset=".133" stop-color="#FF6B00"/><stop offset=".17" stop-color="#FF7A00"/><stop offset=".201" stop-color="#FF7F00"/><stop offset=".251" stop-color="#FF9200"/><stop offset=".35" stop-color="#FFB300"/><stop offset=".404" stop-color="#FFBF00"/><stop offset=".439" stop-color="#E3CA03"/><stop offset=".542" stop-color="#93EB0C"/><stop offset=".59" stop-color="#73F80F"/><stop offset=".616" stop-color="#6AF11D"/><stop offset=".665" stop-color="#54E041"/><stop offset=".732" stop-color="#2FC47B"/><stop offset=".808" stop-color="#00A0C6"/><stop offset=".892" stop-color="#1C64CB"/><stop offset="1" stop-color="#4210D2"/></linearGradient><path fill="url(#d)" d="M404.5 239.9c10.3-6.6 21.7 3.9 31.8 12.8 10.4 9.4 20.7 19.7 31.5 27.2 22 18.8 44.6 2.7 61.1-20l-1.4-5c-16.7 23.7-37.5 39.7-59.4 22.4-10.7-7-21.1-16.7-31.5-25.8-10.3-8.6-21.9-18.8-32.1-11.6z"/><linearGradient id="e" gradientUnits="userSpaceOnUse" x1="879.536" y1="184.17" x2="1181.439" y2="184.17" gradientTransform="matrix(-.715 .129 .129 .715 1134.729 65.352)"><stop offset="0" stop-color="#f00"/><stop offset=".004" stop-color="#FF0500"/><stop offset=".049" stop-color="#FF3000"/><stop offset=".092" stop-color="#FF5200"/><stop offset=".133" stop-color="#FF6B00"/><stop offset=".17" stop-color="#FF7A00"/><stop offset=".201" stop-color="#FF7F00"/><stop offset=".251" stop-color="#FF9200"/><stop offset=".35" stop-color="#FFB300"/><stop offset=".404" stop-color="#FFBF00"/><stop offset=".439" stop-color="#E3CA03"/><stop offset=".542" stop-color="#93EB0C"/><stop offset=".59" stop-color="#73F80F"/><stop offset=".616" stop-color="#6AF11D"/><stop offset=".665" stop-color="#54E041"/><stop offset=".732" stop-color="#2FC47B"/><stop offset=".808" stop-color="#00A0C6"/><stop offset=".892" stop-color="#1C64CB"/><stop offset="1" stop-color="#4210D2"/></linearGradient><path fill="url(#e)" d="M318.2 377.2c9.6-30.7 27.5-43.8 44.2-54.5 17.2-10 35.3-15.5 53.6-16.7 36.5 3.1 75.8 13.6 109.9-13.6l-1.8-7.6c-33.2 27.9-71.1 19-108.5 17.2-18.4 1.9-36.6 8-53.7 18.7-16.5 11.5-34.3 25.3-43.7 56.5z"/></g><g opacity=".87"><linearGradient id="f" gradientUnits="userSpaceOnUse" x1="862.83" y1="76.643" x2="1266.617" y2="76.643" gradientTransform="matrix(-.712 -.144 -.144 .712 1191.092 326.996)"><stop offset="0" stop-color="#f00"/><stop offset=".004" stop-color="#FF0500"/><stop offset=".049" stop-color="#FF3000"/><stop offset=".092" stop-color="#FF5200"/><stop offset=".133" stop-color="#FF6B00"/><stop offset=".17" stop-color="#FF7A00"/><stop offset=".201" stop-color="#FF7F00"/><stop offset=".251" stop-color="#FF9200"/><stop offset=".35" stop-color="#FFB300"/><stop offset=".404" stop-color="#FFBF00"/><stop offset=".439" stop-color="#E3CA03"/><stop offset=".542" stop-color="#93EB0C"/><stop offset=".59" stop-color="#73F80F"/><stop offset=".616" stop-color="#6AF11D"/><stop offset=".665" stop-color="#54E041"/><stop offset=".732" stop-color="#2FC47B"/><stop offset=".808" stop-color="#00A0C6"/><stop offset=".892" stop-color="#1C64CB"/><stop offset="1" stop-color="#4210D2"/></linearGradient><path fill="url(#f)" d="M288.1 147.6c4.5 19.2 6.8 45.9 22 47 14.2 1.4 29.3-17 43.9-23.7 14.7-8.9 29.7-8.4 39 4.9 9.8 12.4 13.5 34.4 21.1 50.8 13.9 34.6 35.1 59.6 61.5 67.2 26.5 7.8 57-2 86.5-20.8l-.2-5c-29.2 18.9-59.2 29.1-85.3 21.8-26.1-7.1-47.3-31.2-61.3-65.2-7.7-16-11.5-38-21.6-50.6-9.7-13.5-25.1-13.7-39.9-4.5-14.6 7.1-29.8 25.6-43.7 24.3-15-.7-17.5-27-22-46.2z"/><linearGradient id="g" gradientUnits="userSpaceOnUse" x1="864.279" y1="61.719" x2="1042.387" y2="61.719" gradientTransform="matrix(-.712 -.144 -.144 .712 1191.092 326.996)"><stop offset="0" stop-color="#f00"/><stop offset=".004" stop-color="#FF0500"/><stop offset=".049" stop-color="#FF3000"/><stop offset=".092" stop-color="#FF5200"/><stop offset=".133" stop-color="#FF6B00"/><stop offset=".17" stop-color="#FF7A00"/><stop offset=".201" stop-color="#FF7F00"/><stop offset=".251" stop-color="#FF9200"/><stop offset=".35" stop-color="#FFB300"/><stop offset=".404" stop-color="#FFBF00"/><stop offset=".439" stop-color="#E3CA03"/><stop offset=".542" stop-color="#93EB0C"/><stop offset=".59" stop-color="#73F80F"/><stop offset=".616" stop-color="#6AF11D"/><stop offset=".665" stop-color="#54E041"/><stop offset=".732" stop-color="#2FC47B"/><stop offset=".808" stop-color="#00A0C6"/><stop offset=".892" stop-color="#1C64CB"/><stop offset="1" stop-color="#4210D2"/></linearGradient><path fill="url(#g)" d="M443.6 200.7c13.6-6.7 21.4 10.4 27.6 23.8 3.1 7.5 4.7 17.1 8.7 23.4 4.1 6.6 11.4 5 18 1.2 26.9-22.8 54.5-17.3 61.8 19.6l2.9-3.3c-8.2-38.8-37.8-42.3-64.5-18.8-6.5 3.9-13.3 5.6-17.3-.4-3.9-5.8-5.8-15.3-8.9-22.7-6.5-13.3-14.5-30-28.3-22.8z"/><linearGradient id="h" gradientUnits="userSpaceOnUse" x1="858.898" y1="70.569" x2="1022.427" y2="70.569" gradientTransform="matrix(-.712 -.144 -.144 .712 1191.092 326.996)"><stop offset="0" stop-color="#f00"/><stop offset=".004" stop-color="#FF0500"/><stop offset=".049" stop-color="#FF3000"/><stop offset=".092" stop-color="#FF5200"/><stop offset=".133" stop-color="#FF6B00"/><stop offset=".17" stop-color="#FF7A00"/><stop offset=".201" stop-color="#FF7F00"/><stop offset=".251" stop-color="#FF9200"/><stop offset=".35" stop-color="#FFB300"/><stop offset=".404" stop-color="#FFBF00"/><stop offset=".439" stop-color="#E3CA03"/><stop offset=".542" stop-color="#93EB0C"/><stop offset=".59" stop-color="#73F80F"/><stop offset=".616" stop-color="#6AF11D"/><stop offset=".665" stop-color="#54E041"/><stop offset=".732" stop-color="#2FC47B"/><stop offset=".808" stop-color="#00A0C6"/><stop offset=".892" stop-color="#1C64CB"/><stop offset="1" stop-color="#4210D2"/></linearGradient><path fill="url(#h)" d="M458.6 199.5c12-2.4 18.7 11.6 24.8 23.6 6.1 12.7 12 25.9 19.2 36.9 13.5 25.6 40.5 19 64.2 4l.5-5.2c-24.2 15.9-49.5 23-63.5-1.1-7.3-10.5-13.3-23.4-19.8-35.7-6.2-11.6-13.3-25.4-25.4-22.5z"/><linearGradient id="i" gradientUnits="userSpaceOnUse" x1="870.709" y1="154.034" x2="1172.739" y2="154.034" gradientTransform="matrix(-.712 -.144 -.144 .712 1191.092 326.996)"><stop offset="0" stop-color="#f00"/><stop offset=".004" stop-color="#FF0500"/><stop offset=".049" stop-color="#FF3000"/><stop offset=".092" stop-color="#FF5200"/><stop offset=".133" stop-color="#FF6B00"/><stop offset=".17" stop-color="#FF7A00"/><stop offset=".201" stop-color="#FF7F00"/><stop offset=".251" stop-color="#FF9200"/><stop offset=".35" stop-color="#FFB300"/><stop offset=".404" stop-color="#FFBF00"/><stop offset=".439" stop-color="#E3CA03"/><stop offset=".542" stop-color="#93EB0C"/><stop offset=".59" stop-color="#73F80F"/><stop offset=".616" stop-color="#6AF11D"/><stop offset=".665" stop-color="#54E041"/><stop offset=".732" stop-color="#2FC47B"/><stop offset=".808" stop-color="#00A0C6"/><stop offset=".892" stop-color="#1C64CB"/><stop offset="1" stop-color="#4210D2"/></linearGradient><path fill="url(#i)" d="M327.7 295.3c20.3-25 41.7-30.5 61.2-34.3 19.7-3 38.5-1.4 56 4.3 32.8 16.4 65.5 40.6 107.2 28l1.2-7.7c-41.1 13.6-73.2-8.5-107.1-24.1-17.9-5.1-37-6.1-56.9-2.5-19.6 4.4-41.3 10.8-61.6 36.3z"/></g><radialGradient id="j" cx="-5821.806" cy="9083.047" r="17.066" gradientTransform="matrix(-.145 -.345 .318 -.131 -3340.887 -620.784)" gradientUnits="userSpaceOnUse"><stop offset="0" stop-color="#fff"/><stop offset="1"/></radialGradient><path fill="url(#j)" d="M390 196.4c3-1.3 6.5.4 7.9 3.5 1.3 3.2 0 7-2.9 8.2-3 1.1-6.5-.4-8-3.7-1.2-3.2 0-6.9 3-8z"/><radialGradient id="k" cx="-6014.067" cy="9157.228" r="29.831" gradientTransform="matrix(-.145 -.345 .318 -.131 -3340.887 -620.784)" gradientUnits="userSpaceOnUse"><stop offset="0" stop-color="#fff"/><stop offset="1"/></radialGradient><path fill="url(#k)" d="M439.7 248.5c5.3-2 11.6.9 13.9 6.5 2.4 5.8.1 12-5.2 14.2-5.3 2.1-11.3-.8-13.7-6.5-2.7-5.6-.3-11.9 5-14.2z"/><radialGradient id="l" cx="4305.12" cy="7407.976" r="16.823" gradientTransform="matrix(.367 .073 -.063 .338 -695.076 -2646.043)" gradientUnits="userSpaceOnUse"><stop offset="0" stop-color="#fff"/><stop offset="1"/></radialGradient><path fill="url(#l)" d="M420.7 176.3c-.4 3-3.7 5-7.1 4.4-3.6-.9-6-3.9-5.1-6.9.3-3.3 3.7-5.3 7.1-4.5 3.4.6 5.8 3.8 5.1 7z"/><radialGradient id="m" cx="4384.559" cy="7536.93" r="10.634" gradientTransform="matrix(.367 .073 -.063 .338 -695.076 -2646.043)" gradientUnits="userSpaceOnUse"><stop offset="0" stop-color="#fff"/><stop offset="1"/></radialGradient><path fill="url(#m)" d="M439.4 225.2c-.4 2.1-2.5 3.1-4.6 3-2.1-.7-3.7-2.6-3.1-4.3.3-2 2.3-3.3 4.5-2.9 2.2.3 3.7 2 3.2 4.2z"/><radialGradient id="n" cx="4589.211" cy="7657.368" r="16.782" gradientTransform="matrix(.367 .073 -.063 .338 -695.076 -2646.043)" gradientUnits="userSpaceOnUse"><stop offset="0" stop-color="#fff"/><stop offset="1"/></radialGradient><path fill="url(#n)" d="M509.2 281.4c-.4 3.1-3.9 5-7.1 4.4-3.4-.6-5.8-3.7-5.1-7 .6-3.1 3.7-5 7.1-4.3 3.4.5 5.7 3.8 5.1 6.9z"/><radialGradient id="o" cx="-6001.138" cy="9277.218" r="13.711" gradientTransform="matrix(-.145 -.345 .318 -.131 -3340.887 -620.784)" gradientUnits="userSpaceOnUse"><stop offset="0" stop-color="#fff"/><stop offset="1"/></radialGradient><path fill="url(#o)" d="M478.4 234c2.4-.9 5.2.5 6.3 3 1.2 2.6.1 5.6-2.2 6.5-2.6.9-5.3-.3-6.4-2.9-1.1-2.7-.3-5.5 2.3-6.6z"/><radialGradient id="p" cx="-6045.649" cy="9260.9" r="7.709" gradientTransform="matrix(-.145 -.345 .318 -.131 -3340.887 -620.784)" gradientUnits="userSpaceOnUse"><stop offset="0" stop-color="#fff"/><stop offset="1"/></radialGradient><path fill="url(#p)" d="M480.5 253.6c1.4-.6 3.1.2 3.6 1.6.5 1.4-.1 3.1-1.2 3.7-1.4.5-3.1-.3-3.7-1.6-.7-1.4-.2-3.2 1.3-3.7z"/><radialGradient id="q" cx="-6040.607" cy="9335.859" r="4.897" gradientTransform="matrix(-.145 -.345 .318 -.131 -3340.887 -620.784)" gradientUnits="userSpaceOnUse"><stop offset="0" stop-color="#fff"/><stop offset="1"/></radialGradient><path fill="url(#q)" d="M504.1 243c.8-.3 1.8.2 2.2 1.1.3.9.1 1.9-.9 2.3-.8.3-1.8-.2-2.3-1-.4-1 .2-2 1-2.4z"/><radialGradient id="r" cx="-6054.766" cy="9186.632" r="13.507" gradientTransform="matrix(-.145 -.345 .318 -.131 -3340.887 -620.784)" gradientUnits="userSpaceOnUse"><stop offset="0" stop-color="#fff"/><stop offset="1"/></radialGradient><path fill="url(#r)" d="M457.5 264.4c2.4-1 5.2.3 6.2 3 1.1 2.6 0 5.5-2.4 6.5-2.3.9-5.1-.3-6.2-3-1-2.6 0-5.4 2.4-6.5z"/><radialGradient id="s" cx="4585.167" cy="7576.663" r="13.602" gradientTransform="matrix(.367 .073 -.063 .338 -695.076 -2646.043)" gradientUnits="userSpaceOnUse"><stop offset="0" stop-color="#fff"/><stop offset="1"/></radialGradient><path fill="url(#s)" d="M511.6 253.5c-.3 2.6-3 4.3-5.7 3.7-2.8-.6-4.4-3.1-4.2-5.5.7-2.6 3.3-4.2 6-3.7 2.8.5 4.6 3 3.9 5.5z"/><radialGradient id="t" cx="4541.472" cy="7560.223" r="7.798" gradientTransform="matrix(.367 .073 -.063 .338 -695.076 -2646.043)" gradientUnits="userSpaceOnUse"><stop offset="0" stop-color="#fff"/><stop offset="1"/></radialGradient><path fill="url(#t)" d="M494.5 244.4c-.3 1.5-1.8 2.4-3.4 2-1.6-.3-2.6-1.7-2.4-3.1.2-1.4 1.8-2.4 3.4-2 1.7.3 2.7 1.6 2.4 3.1z"/><radialGradient id="u" cx="4741.949" cy="7678.154" r="7.619" gradientTransform="matrix(.367 .073 -.063 .338 -695.076 -2646.043)" gradientUnits="userSpaceOnUse"><stop offset="0" stop-color="#fff"/><stop offset="1"/></radialGradient><path fill="url(#u)" d="M560.6 298.9c-.3 1.5-1.8 2.5-3.3 2-1.5-.3-2.5-1.7-2.3-3.1.3-1.5 1.7-2.4 3.2-2 1.6.3 2.5 1.6 2.4 3.1z"/><radialGradient id="v" cx="4546.24" cy="7635.541" r="4.815" gradientTransform="matrix(.367 .073 -.063 .338 -695.076 -2646.043)" gradientUnits="userSpaceOnUse"><stop offset="0" stop-color="#fff"/><stop offset="1"/></radialGradient><path fill="url(#v)" d="M490.4 269.9c-.2.9-1.1 1.6-2 1.4-1.1-.3-1.7-1.2-1.5-2.1.2-.8 1-1.4 2-1.1 1.1.1 1.8.9 1.5 1.8z"/><radialGradient id="w" cx="4670.698" cy="7674.126" r="7.745" gradientTransform="matrix(.367 .073 -.063 .338 -695.076 -2646.043)" gradientUnits="userSpaceOnUse"><stop offset="0" stop-color="#fff"/><stop offset="1"/></radialGradient><path fill="url(#w)" d="M534.7 292.2c-.2 1.4-1.8 2.5-3.3 2.2-1.4-.4-2.6-1.8-2.4-3.2.3-1.5 1.8-2.3 3.4-2 1.6.2 2.5 1.7 2.3 3z"/><radialGradient id="x" cx="4453.681" cy="7594.048" r="13.598" gradientTransform="matrix(.367 .073 -.063 .338 -695.076 -2646.043)" gradientUnits="userSpaceOnUse"><stop offset="0" stop-color="#fff"/><stop offset="1"/></radialGradient><path fill="url(#x)" d="M462.4 249.7c-.4 2.6-3.1 4.2-6 3.6-2.7-.6-4.5-3-4.1-5.5.5-2.6 3.1-4.2 5.9-3.6 2.7.6 4.6 3.1 4.2 5.5z"/><radialGradient id="y" cx="3309.444" cy="7487.69" r="13.577" gradientTransform="matrix(.366 .074 -.064 .338 -205.598 -2507.736)" gradientUnits="userSpaceOnUse"><stop offset="0" stop-color="#fff"/><stop offset="1"/></radialGradient><path fill="url(#y)" d="M532.7 269.9c-.5 2.5-3.1 4.2-5.8 3.6-2.7-.7-4.6-3.1-4.1-5.7.4-2.5 3.1-4.2 5.9-3.6 2.9.7 4.6 3 4 5.7z"/><radialGradient id="z" cx="3323.553" cy="7574.55" r="7.787" gradientTransform="matrix(.366 .074 -.064 .338 -205.598 -2507.736)" gradientUnits="userSpaceOnUse"><stop offset="0" stop-color="#fff"/><stop offset="1"/></radialGradient><path fill="url(#z)" d="M530.1 299.8c-.3 1.4-1.8 2.6-3.3 2.2-1.4-.3-2.5-1.9-2.3-3.2.3-1.5 1.8-2.3 3.2-2.1 1.7.2 2.7 1.7 2.4 3.1z"/><radialGradient id="A" cx="3265.265" cy="7471.366" r="7.665" gradientTransform="matrix(.366 .074 -.064 .338 -205.598 -2507.736)" gradientUnits="userSpaceOnUse"><stop offset="0" stop-color="#fff"/><stop offset="1"/></radialGradient><path fill="url(#A)" d="M515.4 260.7c-.3 1.4-1.7 2.3-3.3 1.9-1.7-.2-2.6-1.6-2.4-3.1.3-1.6 1.8-2.3 3.2-2 1.6.3 2.9 1.7 2.5 3.2z"/><radialGradient id="B" cx="3270.314" cy="7546.663" r="4.934" gradientTransform="matrix(.366 .074 -.064 .338 -205.598 -2507.736)" gradientUnits="userSpaceOnUse"><stop offset="0" stop-color="#fff"/><stop offset="1"/></radialGradient><path fill="url(#B)" d="M511.4 286.2c-.3.8-1.2 1.5-2.3 1.4-.7-.3-1.5-1.3-1.3-2 .2-1.1 1-1.7 2.2-1.4.8.3 1.6 1.1 1.4 2z"/><radialGradient id="C" cx="3394.849" cy="7585.083" r="7.93" gradientTransform="matrix(.366 .074 -.064 .338 -205.598 -2507.736)" gradientUnits="userSpaceOnUse"><stop offset="0" stop-color="#fff"/><stop offset="1"/></radialGradient><path fill="url(#C)" d="M555.7 308.8c-.4 1.3-1.9 2.1-3.5 2-1.5-.3-2.6-1.8-2.4-3.2.4-1.5 1.8-2.4 3.4-2 1.7.1 2.8 1.7 2.5 3.2z"/><radialGradient id="D" cx="3177.458" cy="7504.852" r="13.502" gradientTransform="matrix(.366 .074 -.064 .338 -205.598 -2507.736)" gradientUnits="userSpaceOnUse"><stop offset="0" stop-color="#fff"/><stop offset="1"/></radialGradient><path fill="url(#D)" d="M483.2 266c-.5 2.6-3 4.2-5.8 3.6-2.8-.4-4.7-2.9-4.2-5.4.6-2.6 3.1-4.1 5.9-3.7 2.8.5 4.6 3 4.1 5.5z"/><radialGradient id="E" cx="-1922.002" cy="262.548" r="7.743" gradientTransform="matrix(-.26 .264 -.247 -.244 41.125 836.602)" gradientUnits="userSpaceOnUse"><stop offset="0" stop-color="#fff"/><stop offset="1"/></radialGradient><path fill="url(#E)" d="M474.9 267.8c-1.3-1.1-1-2.8-.1-4 1.2-.9 3-.9 4-.1.9 1.1 1 2.8-.1 3.9-1 1.2-2.9 1.2-3.8.2z"/><radialGradient id="F" cx="-1980.177" cy="159.034" r="7.779" gradientTransform="matrix(-.26 .264 -.247 -.244 41.125 836.602)" gradientUnits="userSpaceOnUse"><stop offset="0" stop-color="#fff"/><stop offset="1"/></radialGradient><path fill="url(#F)" d="M515.5 277.6c-1-1.2-.9-2.8.1-4 1-1.2 2.7-1.3 3.8-.3.9 1.2.9 2.8 0 4-1.2 1.2-2.8 1.3-3.9.3z"/><radialGradient id="G" cx="-1779.667" cy="277.242" r="7.74" gradientTransform="matrix(-.26 .264 -.247 -.244 41.125 836.602)" gradientUnits="userSpaceOnUse"><stop offset="0" stop-color="#fff"/><stop offset="1"/></radialGradient><path fill="url(#G)" d="M433.9 301.6c-1-.9-1-2.7.2-3.7 1.2-1.3 3-1.4 4-.2 1 1 1 2.9-.3 3.9-1.1.9-2.7 1.1-3.9 0z"/><radialGradient id="H" cx="-1975.341" cy="234.408" r="4.813" gradientTransform="matrix(-.26 .264 -.247 -.244 41.125 836.602)" gradientUnits="userSpaceOnUse"><stop offset="0" stop-color="#fff"/><stop offset="1"/></radialGradient><path fill="url(#H)" d="M496.4 259.8c-.8-.8-.7-1.9 0-2.5.7-.7 1.8-.8 2.5-.1s.5 1.7-.1 2.4c-.7.8-1.8.8-2.4.2z"/><radialGradient id="I" cx="-1850.938" cy="273.047" r="7.643" gradientTransform="matrix(-.26 .264 -.247 -.244 41.125 836.602)" gradientUnits="userSpaceOnUse"><stop offset="0" stop-color="#fff"/><stop offset="1"/></radialGradient><path fill="url(#I)" d="M453.6 283.8c-1-1-.9-2.7.2-3.9 1-1 2.8-1.2 3.8-.2 1 1.2 1.1 2.9-.1 3.9-1.1 1.3-2.8 1.4-3.9.2z"/><radialGradient id="J" cx="-1989.504" cy="85.027" r="13.57" gradientTransform="matrix(-.26 .264 -.247 -.244 41.125 836.602)" gradientUnits="userSpaceOnUse"><stop offset="0" stop-color="#fff"/><stop offset="1"/></radialGradient><path fill="url(#J)" d="M534.8 294.7c-1.9-1.9-1.9-5 .1-7 1.9-2 5-1.9 6.9-.1 1.7 1.8 1.8 4.9-.2 6.9-2 1.9-5 2-6.8.2z"/><radialGradient id="K" cx="-5820.675" cy="9145.492" r="10.589" gradientTransform="matrix(-.145 -.345 .318 -.131 -3340.887 -620.784)" gradientUnits="userSpaceOnUse"><stop offset="0" stop-color="#fff"/><stop offset="1"/></radialGradient><path fill="url(#K)" d="M410.6 190.1c1.9-.8 4.1.3 4.9 2.2.9 2 0 4.3-1.8 5.1-1.9.7-4.1-.3-4.9-2.3-.8-2.1 0-4.4 1.8-5z"/><radialGradient id="L" cx="-5939.932" cy="9191.506" r="18.504" gradientTransform="matrix(-.145 -.345 .318 -.131 -3340.887 -620.784)" gradientUnits="userSpaceOnUse"><stop offset="0" stop-color="#fff"/><stop offset="1"/></radialGradient><path fill="url(#L)" d="M441.5 222.4c3.2-1.2 7.1.6 8.6 4.1 1.4 3.6.1 7.4-3.2 8.8-3.2 1.3-7-.5-8.5-4.1-1.7-3.5-.2-7.4 3.1-8.8z"/><radialGradient id="M" cx="4335.651" cy="7406.674" r="10.438" gradientTransform="matrix(.367 .073 -.063 .338 -695.076 -2646.043)" gradientUnits="userSpaceOnUse"><stop offset="0" stop-color="#fff"/><stop offset="1"/></radialGradient><path fill="url(#M)" d="M429.7 177.6c-.3 1.9-2.3 3.1-4.4 2.7-2.2-.5-3.7-2.5-3.1-4.3.3-2 2.3-3.3 4.3-2.8 2.1.5 3.6 2.3 3.2 4.4z"/><radialGradient id="N" cx="4384.932" cy="7486.662" r="6.592" gradientTransform="matrix(.367 .073 -.063 .338 -695.076 -2646.043)" gradientUnits="userSpaceOnUse"><stop offset="0" stop-color="#fff"/><stop offset="1"/></radialGradient><path fill="url(#N)" d="M441.3 207.9c-.3 1.4-1.5 2-2.8 1.9-1.4-.4-2.3-1.6-2-2.7.2-1.3 1.4-2 2.8-1.8 1.3.1 2.3 1.3 2 2.6z"/><radialGradient id="O" cx="4511.88" cy="7561.382" r="10.413" gradientTransform="matrix(.367 .073 -.063 .338 -695.076 -2646.043)" gradientUnits="userSpaceOnUse"><stop offset="0" stop-color="#fff"/><stop offset="1"/></radialGradient><path fill="url(#O)" d="M484.6 242.8c-.3 2-2.5 3.1-4.4 2.7-2.1-.3-3.6-2.3-3.1-4.3.4-2 2.3-3.1 4.4-2.7 2.1.4 3.5 2.4 3.1 4.3z"/><radialGradient id="P" cx="-5931.916" cy="9265.936" r="8.506" gradientTransform="matrix(-.145 -.345 .318 -.131 -3340.887 -620.784)" gradientUnits="userSpaceOnUse"><stop offset="0" stop-color="#fff"/><stop offset="1"/></radialGradient><path fill="url(#P)" d="M465.4 213.4c1.5-.5 3.2.3 3.9 1.9.8 1.6.1 3.5-1.4 4.1-1.5.6-3.2-.3-3.9-1.8-.7-1.8-.1-3.5 1.4-4.2z"/><radialGradient id="Q" cx="-5959.528" cy="9255.818" r="4.783" gradientTransform="matrix(-.145 -.345 .318 -.131 -3340.887 -620.784)" gradientUnits="userSpaceOnUse"><stop offset="0" stop-color="#fff"/><stop offset="1"/></radialGradient><path fill="url(#Q)" d="M466.7 225.6c.9-.4 1.9.1 2.2 1 .3.9 0 1.9-.8 2.3-.9.3-1.9-.2-2.3-1-.3-.9.1-2.1.9-2.3z"/><radialGradient id="R" cx="-5956.396" cy="9302.321" r="3.038" gradientTransform="matrix(-.145 -.345 .318 -.131 -3340.887 -620.784)" gradientUnits="userSpaceOnUse"><stop offset="0" stop-color="#fff"/><stop offset="1"/></radialGradient><path fill="url(#R)" d="M481.4 219c.5-.2 1.1.1 1.4.7.3.5.1 1.2-.5 1.4-.5.2-1.1-.1-1.4-.7-.4-.6 0-1.3.5-1.4z"/><radialGradient id="S" cx="-5965.179" cy="9209.747" r="8.384" gradientTransform="matrix(-.145 -.345 .318 -.131 -3340.887 -620.784)" gradientUnits="userSpaceOnUse"><stop offset="0" stop-color="#fff"/><stop offset="1"/></radialGradient><path fill="url(#S)" d="M452.4 232.2c1.4-.6 3.2.3 3.8 1.9.7 1.6 0 3.4-1.4 4-1.4.5-3.1-.2-3.8-1.8-.6-1.6 0-3.4 1.4-4.1z"/><radialGradient id="T" cx="4509.371" cy="7511.314" r="8.441" gradientTransform="matrix(.367 .073 -.063 .338 -695.076 -2646.043)" gradientUnits="userSpaceOnUse"><stop offset="0" stop-color="#fff"/><stop offset="1"/></radialGradient><path fill="url(#T)" d="M486.1 225.5c-.3 1.6-1.9 2.6-3.6 2.3-1.7-.4-2.7-2-2.6-3.5.4-1.5 2-2.6 3.7-2.3 1.8.4 2.8 1.9 2.5 3.5z"/><radialGradient id="U" cx="4482.267" cy="7501.113" r="4.839" gradientTransform="matrix(.367 .073 -.063 .338 -695.076 -2646.043)" gradientUnits="userSpaceOnUse"><stop offset="0" stop-color="#fff"/><stop offset="1"/></radialGradient><path fill="url(#U)" d="M475.5 219.8c-.3.9-1.1 1.4-2.1 1.3-1-.2-1.6-1-1.4-2 .1-.9 1.1-1.4 2.1-1.3.9.3 1.5 1.2 1.4 2z"/><radialGradient id="V" cx="4606.626" cy="7574.275" r="4.729" gradientTransform="matrix(.367 .073 -.063 .338 -695.076 -2646.043)" gradientUnits="userSpaceOnUse"><stop offset="0" stop-color="#fff"/><stop offset="1"/></radialGradient><path fill="url(#V)" d="M516.4 253.6c-.2.9-1.1 1.5-2 1.3-.9-.2-1.5-1.1-1.4-2 .2-.9 1-1.4 2-1.3 1 .3 1.5 1.1 1.4 2z"/><radialGradient id="W" cx="4485.229" cy="7547.833" r="2.985" gradientTransform="matrix(.367 .073 -.063 .338 -695.076 -2646.043)" gradientUnits="userSpaceOnUse"><stop offset="0" stop-color="#fff"/><stop offset="1"/></radialGradient><path fill="url(#W)" d="M472.9 235.6c-.1.6-.7 1-1.3.8-.7-.2-1-.8-.9-1.4.1-.5.7-.9 1.3-.7.7.3 1.1.8.9 1.3z"/><radialGradient id="X" cx="4562.43" cy="7571.774" r="4.807" gradientTransform="matrix(.367 .073 -.063 .338 -695.076 -2646.043)" gradientUnits="userSpaceOnUse"><stop offset="0" stop-color="#fff"/><stop offset="1"/></radialGradient><path fill="url(#X)" d="M500.4 249.5c-.1.9-1.1 1.5-2 1.4-.9-.3-1.5-1.1-1.4-2 .2-.9 1.1-1.4 2.1-1.3.9.2 1.5 1 1.3 1.9z"/><radialGradient id="Y" cx="4427.81" cy="7522.101" r="8.438" gradientTransform="matrix(.367 .073 -.063 .338 -695.076 -2646.043)" gradientUnits="userSpaceOnUse"><stop offset="0" stop-color="#fff"/><stop offset="1"/></radialGradient><path fill="url(#Y)" d="M455.5 223.2c-.3 1.6-2 2.6-3.7 2.2-1.7-.3-2.8-1.9-2.5-3.4.3-1.6 2-2.6 3.7-2.2 1.7.3 2.8 1.9 2.5 3.4z"/><radialGradient id="Z" cx="3209.39" cy="7409.47" r="8.422" gradientTransform="matrix(.366 .074 -.064 .338 -205.598 -2507.736)" gradientUnits="userSpaceOnUse"><stop offset="0" stop-color="#fff"/><stop offset="1"/></radialGradient><path fill="url(#Z)" d="M499.2 235.6c-.3 1.5-1.9 2.5-3.6 2.2-1.7-.4-2.8-1.9-2.5-3.5.3-1.5 2-2.6 3.6-2.2 1.7.5 2.8 1.9 2.5 3.5z"/><radialGradient id="aa" cx="3218.141" cy="7463.352" r="4.83" gradientTransform="matrix(.366 .074 -.064 .338 -205.598 -2507.736)" gradientUnits="userSpaceOnUse"><stop offset="0" stop-color="#fff"/><stop offset="1"/></radialGradient><path fill="url(#aa)" d="M497.6 254.2c-.3.9-1.1 1.6-2 1.4-.9-.3-1.5-1.1-1.4-2 .2-.9 1.1-1.4 2-1.4.9.3 1.5 1.2 1.4 2z"/><radialGradient id="ab" cx="3181.986" cy="7399.341" r="4.753" gradientTransform="matrix(.366 .074 -.064 .338 -205.598 -2507.736)" gradientUnits="userSpaceOnUse"><stop offset="0" stop-color="#fff"/><stop offset="1"/></radialGradient><path fill="url(#ab)" d="M488.5 229.9c-.2.9-1.1 1.4-2 1.2-1-.1-1.5-1-1.4-2 .3-1 1.1-1.4 2-1.3.8.3 1.6 1.2 1.4 2.1z"/><radialGradient id="ac" cx="3185.12" cy="7446.049" r="3.059" gradientTransform="matrix(.366 .074 -.064 .338 -205.598 -2507.736)" gradientUnits="userSpaceOnUse"><stop offset="0" stop-color="#fff"/><stop offset="1"/></radialGradient><path fill="url(#ac)" d="M485.9 245.8c-.2.4-.8.9-1.4.8-.4-.2-.9-.8-.8-1.2.1-.7.7-1 1.4-.9.5.2 1 .7.8 1.3z"/><radialGradient id="ad" cx="3262.364" cy="7469.886" r="4.92" gradientTransform="matrix(.366 .074 -.064 .338 -205.598 -2507.736)" gradientUnits="userSpaceOnUse"><stop offset="0" stop-color="#fff"/><stop offset="1"/></radialGradient><path fill="url(#ad)" d="M513.5 259.8c-.3.9-1.2 1.3-2.1 1.2-.9-.2-1.6-1.1-1.5-2 .3-.9 1.1-1.4 2.1-1.3.9.2 1.6 1.2 1.5 2.1z"/><radialGradient id="ae" cx="3127.518" cy="7420.119" r="8.375" gradientTransform="matrix(.366 .074 -.064 .338 -205.598 -2507.736)" gradientUnits="userSpaceOnUse"><stop offset="0" stop-color="#fff"/><stop offset="1"/></radialGradient><path fill="url(#ae)" d="M468.4 233.2c-.3 1.6-1.9 2.6-3.6 2.2-1.7-.3-2.9-1.8-2.5-3.4.3-1.5 2-2.5 3.7-2.3 1.7.4 2.8 2 2.4 3.5z"/><radialGradient id="af" cx="-1961.352" cy="353.756" r="4.8" gradientTransform="matrix(-.26 .264 -.247 -.244 41.125 836.602)" gradientUnits="userSpaceOnUse"><stop offset="0" stop-color="#fff"/><stop offset="1"/></radialGradient><path fill="url(#af)" d="M463.3 234.3c-.8-.7-.7-1.8-.1-2.5.8-.6 1.8-.6 2.5-.1.6.7.6 1.8-.1 2.5-.6.7-1.7.7-2.3.1z"/><radialGradient id="ag" cx="-1997.441" cy="289.542" r="4.83" gradientTransform="matrix(-.26 .264 -.247 -.244 41.125 836.602)" gradientUnits="userSpaceOnUse"><stop offset="0" stop-color="#fff"/><stop offset="1"/></radialGradient><path fill="url(#ag)" d="M488.5 240.5c-.7-.7-.6-1.8.1-2.5.6-.8 1.7-.8 2.4-.2.6.7.6 1.7 0 2.5-.8.8-1.8.8-2.5.2z"/><radialGradient id="ah" cx="-1873.059" cy="362.871" r="4.802" gradientTransform="matrix(-.26 .264 -.247 -.244 41.125 836.602)" gradientUnits="userSpaceOnUse"><stop offset="0" stop-color="#fff"/><stop offset="1"/></radialGradient><path fill="url(#ah)" d="M437.9 255.3c-.6-.6-.6-1.7.1-2.4.8-.8 1.9-.9 2.5-.1.6.7.6 1.8-.2 2.5-.7.6-1.7.7-2.4 0z"/><radialGradient id="ai" cx="-1994.439" cy="336.302" r="2.986" gradientTransform="matrix(-.26 .264 -.247 -.244 41.125 836.602)" gradientUnits="userSpaceOnUse"><stop offset="0" stop-color="#fff"/><stop offset="1"/></radialGradient><path fill="url(#ai)" d="M476.7 229.4c-.4-.4-.4-1.2 0-1.5.4-.4 1.1-.5 1.5-.1.4.4.3 1-.1 1.5s-1.1.5-1.4.1z"/><radialGradient id="aj" cx="-1917.254" cy="360.267" r="4.732" gradientTransform="matrix(-.26 .264 -.247 -.244 41.125 836.602)" gradientUnits="userSpaceOnUse"><stop offset="0" stop-color="#fff"/><stop offset="1"/></radialGradient><path fill="url(#aj)" d="M450.1 244.3c-.7-.6-.6-1.7.1-2.4.6-.6 1.8-.8 2.4-.1.6.7.7 1.8-.1 2.5-.7.7-1.8.8-2.4 0z"/><radialGradient id="ak" cx="-2003.237" cy="243.643" r="8.414" gradientTransform="matrix(-.26 .264 -.247 -.244 41.125 836.602)" gradientUnits="userSpaceOnUse"><stop offset="0" stop-color="#fff"/><stop offset="1"/></radialGradient><path fill="url(#ak)" d="M500.5 251c-1.2-1.1-1.2-3.1.1-4.3 1.1-1.3 3.1-1.2 4.2-.1 1.1 1.1 1.1 3.1-.1 4.2-1.3 1.3-3.1 1.3-4.2.2z"/><radialGradient id="al" cx="-6018.153" cy="8447.816" r="14.146" gradientTransform="matrix(-.143 -.346 .319 -.128 -3334.473 -647.062)" gradientUnits="userSpaceOnUse"><stop offset="0" stop-color="#fff"/><stop offset="1"/></radialGradient><path fill="url(#al)" d="M216.7 346.9c2.5-1 5.4.4 6.5 3 1.1 2.7 0 5.8-2.5 6.8-2.5.9-5.4-.4-6.5-3.1-1.1-2.7 0-5.9 2.5-6.7z"/><radialGradient id="am" cx="-6177.501" cy="8509.295" r="24.724" gradientTransform="matrix(-.143 -.346 .319 -.128 -3334.473 -647.062)" gradientUnits="userSpaceOnUse"><stop offset="0" stop-color="#fff"/><stop offset="1"/></radialGradient><path fill="url(#am)" d="M257.5 390.4c4.4-1.6 9.5.9 11.5 5.5 2 4.8 0 9.9-4.4 11.7-4.3 1.7-9.3-.8-11.3-5.5-2.1-4.6-.2-9.8 4.2-11.7z"/><radialGradient id="an" cx="3916.119" cy="7951.316" r="13.935" gradientTransform="matrix(.366 .076 -.066 .338 -674.494 -2653.643)" gradientUnits="userSpaceOnUse"><stop offset="0" stop-color="#fff"/><stop offset="1"/></radialGradient><path fill="url(#an)" d="M242.2 330.4c-.4 2.5-3.1 4.2-5.9 3.6-2.9-.7-4.9-3.3-4.2-5.8.3-2.7 3.1-4.3 5.9-3.7 2.9.6 4.7 3.2 4.2 5.9z"/><radialGradient id="ao" cx="3981.956" cy="8058.21" r="8.804" gradientTransform="matrix(.366 .076 -.066 .338 -674.494 -2653.643)" gradientUnits="userSpaceOnUse"><stop offset="0" stop-color="#fff"/><stop offset="1"/></radialGradient><path fill="url(#ao)" d="M257.5 370.9c-.4 1.8-2 2.6-3.8 2.5-1.8-.6-3-2.1-2.6-3.7.3-1.7 2-2.7 3.7-2.4 1.8.4 3.1 2 2.7 3.6z"/><radialGradient id="ap" cx="4151.573" cy="8158.026" r="13.909" gradientTransform="matrix(.366 .076 -.066 .338 -674.494 -2653.643)" gradientUnits="userSpaceOnUse"><stop offset="0" stop-color="#fff"/><stop offset="1"/></radialGradient><path fill="url(#ap)" d="M314.9 418c-.4 2.6-3.3 4.2-5.9 3.6-2.8-.5-4.8-3.1-4.2-5.9.5-2.5 3.1-4.2 5.9-3.6 2.9.6 4.8 3.4 4.2 5.9z"/><radialGradient id="aq" cx="-6166.787" cy="8608.741" r="11.363" gradientTransform="matrix(-.143 -.346 .319 -.128 -3334.473 -647.062)" gradientUnits="userSpaceOnUse"><stop offset="0" stop-color="#fff"/><stop offset="1"/></radialGradient><path fill="url(#aq)" d="M289.6 378.5c2-.7 4.2.4 5.2 2.5.9 2.2 0 4.7-1.9 5.4-2 .8-4.3-.3-5.3-2.4-.7-2.2-.1-4.6 2-5.5z"/><radialGradient id="ar" cx="-6203.677" cy="8595.223" r="6.389" gradientTransform="matrix(-.143 -.346 .319 -.128 -3334.473 -647.062)" gradientUnits="userSpaceOnUse"><stop offset="0" stop-color="#fff"/><stop offset="1"/></radialGradient><path fill="url(#ar)" d="M291.3 394.8c1.2-.5 2.5.2 3 1.4.4 1.2-.1 2.5-1 3.1-1.2.3-2.5-.3-3-1.4-.6-1.2-.2-2.7 1-3.1z"/><radialGradient id="as" cx="-6199.492" cy="8657.35" r="4.058" gradientTransform="matrix(-.143 -.346 .319 -.128 -3334.473 -647.062)" gradientUnits="userSpaceOnUse"><stop offset="0" stop-color="#fff"/><stop offset="1"/></radialGradient><path fill="url(#as)" d="M310.9 386.2c.7-.3 1.4.2 1.8.9.3.7.1 1.5-.7 1.9-.7.3-1.5-.2-1.9-.9-.4-.8.1-1.7.8-1.9z"/><radialGradient id="at" cx="-6211.229" cy="8533.67" r="11.199" gradientTransform="matrix(-.143 -.346 .319 -.128 -3334.473 -647.062)" gradientUnits="userSpaceOnUse"><stop offset="0" stop-color="#fff"/><stop offset="1"/></radialGradient><path fill="url(#at)" d="M272.2 403.7c2-.9 4.3.3 5.1 2.5.9 2.1 0 4.6-2 5.4-2 .7-4.2-.3-5.1-2.5-.8-2.2 0-4.6 2-5.4z"/><radialGradient id="au" cx="4148.227" cy="8091.137" r="11.271" gradientTransform="matrix(.366 .076 -.066 .338 -674.494 -2653.643)" gradientUnits="userSpaceOnUse"><stop offset="0" stop-color="#fff"/><stop offset="1"/></radialGradient><path fill="url(#au)" d="M317.1 394.9c-.3 2.1-2.6 3.5-4.8 3.1-2.3-.5-3.7-2.6-3.5-4.7.6-2 2.7-3.5 5-3 2.5.4 3.8 2.5 3.3 4.6z"/><radialGradient id="av" cx="4112.008" cy="8077.507" r="6.459" gradientTransform="matrix(.366 .076 -.066 .338 -674.494 -2653.643)" gradientUnits="userSpaceOnUse"><stop offset="0" stop-color="#fff"/><stop offset="1"/></radialGradient><path fill="url(#av)" d="M303 387.3c-.3 1.3-1.5 2-2.8 1.6-1.4-.3-2.1-1.4-2-2.6.2-1.2 1.5-2 2.8-1.7 1.3.3 2.2 1.5 2 2.7z"/><radialGradient id="aw" cx="4278.162" cy="8175.264" r="6.32" gradientTransform="matrix(.366 .076 -.066 .338 -674.494 -2653.643)" gradientUnits="userSpaceOnUse"><stop offset="0" stop-color="#fff"/><stop offset="1"/></radialGradient><path fill="url(#aw)" d="M357.4 432.8c-.3 1.3-1.4 2-2.8 1.7-1.3-.3-2.1-1.4-1.9-2.6.3-1.3 1.4-2 2.7-1.6 1.4.1 2.1 1.3 2 2.5z"/><radialGradient id="ax" cx="4115.959" cy="8139.942" r="3.99" gradientTransform="matrix(.366 .076 -.066 .338 -674.494 -2653.643)" gradientUnits="userSpaceOnUse"><stop offset="0" stop-color="#fff"/><stop offset="1"/></radialGradient><path fill="url(#ax)" d="M299.4 408.3c-.2.8-.9 1.4-1.6 1.2-.9-.3-1.4-1-1.2-1.8.2-.7.9-1.1 1.7-.9.8.1 1.3.9 1.1 1.5z"/><radialGradient id="ay" cx="4219.111" cy="8171.921" r="6.42" gradientTransform="matrix(.366 .076 -.066 .338 -674.494 -2653.643)" gradientUnits="userSpaceOnUse"><stop offset="0" stop-color="#fff"/><stop offset="1"/></radialGradient><path fill="url(#ay)" d="M336 427.1c-.2 1.2-1.4 2-2.7 1.8-1.2-.3-2.1-1.5-2-2.7.3-1.3 1.5-1.9 2.8-1.6 1.3.2 2.1 1.4 1.9 2.5z"/><radialGradient id="az" cx="4039.247" cy="8105.538" r="11.265" gradientTransform="matrix(.366 .076 -.066 .338 -674.494 -2653.643)" gradientUnits="userSpaceOnUse"><stop offset="0" stop-color="#fff"/><stop offset="1"/></radialGradient><path fill="url(#az)" d="M276.3 391.5c-.3 2.1-2.6 3.4-5 3-2.3-.5-3.7-2.5-3.3-4.6s2.6-3.5 4.8-3c2.3.5 3.9 2.6 3.5 4.6z"/><radialGradient id="aA" cx="3465.853" cy="8160.027" r="11.254" gradientTransform="matrix(-.102 .359 -.333 -.09 3466.91 -124.112)" gradientUnits="userSpaceOnUse"><stop offset="0" stop-color="#fff"/><stop offset="1"/></radialGradient><path fill="url(#aA)" d="M397.7 389.5c-2-.6-3.2-2.8-2.5-5 .8-2.2 2.8-3.6 4.9-3.1 2 .5 3.2 2.9 2.5 5-.7 2.5-2.8 3.8-4.9 3.1z"/><radialGradient id="aB" cx="3477.55" cy="8232.024" r="6.452" gradientTransform="matrix(-.102 .359 -.333 -.09 3466.91 -124.112)" gradientUnits="userSpaceOnUse"><stop offset="0" stop-color="#fff"/><stop offset="1"/></radialGradient><path fill="url(#aB)" d="M373.1 385.5c-1.2-.4-2-1.6-1.6-2.9.4-1.1 1.7-2 2.8-1.6 1.2.3 1.8 1.6 1.5 2.8-.3 1.3-1.6 2-2.7 1.7z"/><radialGradient id="aC" cx="3429.238" cy="8146.501" r="6.351" gradientTransform="matrix(-.102 .359 -.333 -.09 3466.91 -124.112)" gradientUnits="userSpaceOnUse"><stop offset="0" stop-color="#fff"/><stop offset="1"/></radialGradient><path fill="url(#aC)" d="M406.4 375.9c-1.2-.3-1.8-1.6-1.4-2.9.3-1.4 1.5-2 2.7-1.7 1.3.4 1.8 1.6 1.4 2.8-.3 1.2-1.5 2.1-2.7 1.8z"/><radialGradient id="aD" cx="3433.429" cy="8208.911" r="4.089" gradientTransform="matrix(-.102 .359 -.333 -.09 3466.91 -124.112)" gradientUnits="userSpaceOnUse"><stop offset="0" stop-color="#fff"/><stop offset="1"/></radialGradient><path fill="url(#aD)" d="M385.5 370.9c-.6-.3-1.2-1.1-.9-2 .3-.6 1.2-1.2 1.7-.9.9.2 1.4.9 1 1.9-.3.6-1 1.2-1.8 1z"/><radialGradient id="aE" cx="3536.64" cy="8240.757" r="6.572" gradientTransform="matrix(-.102 .359 -.333 -.09 3466.91 -124.112)" gradientUnits="userSpaceOnUse"><stop offset="0" stop-color="#fff"/><stop offset="1"/></radialGradient><path fill="url(#aE)" d="M364 406c-1-.4-1.6-1.7-1.4-3 .3-1.2 1.6-2 2.8-1.8 1.2.4 1.9 1.6 1.4 3-.2 1.3-1.6 2.1-2.8 1.8z"/><radialGradient id="aF" cx="3356.464" cy="8174.252" r="11.188" gradientTransform="matrix(-.102 .359 -.333 -.09 3466.91 -124.112)" gradientUnits="userSpaceOnUse"><stop offset="0" stop-color="#fff"/><stop offset="1"/></radialGradient><path fill="url(#aF)" d="M404.2 348.9c-2-.6-3.3-2.7-2.6-4.9.5-2.3 2.7-3.7 4.8-3.1 2 .7 3.1 2.9 2.7 5.1-.8 2.2-3 3.4-4.9 2.9z"/><radialGradient id="aG" cx="-1504.671" cy="-266.848" r="6.422" gradientTransform="matrix(-.243 -.28 .263 -.227 109.224 -137.998)" gradientUnits="userSpaceOnUse"><stop offset="0" stop-color="#fff"/><stop offset="1"/></radialGradient><path fill="url(#aG)" d="M403.1 342c1-1 2.4-.7 3.3.2.8 1 .6 2.5-.2 3.3-.9.7-2.4.6-3.2-.3-.9-1-.7-2.6.1-3.2z"/><radialGradient id="aH" cx="-1552.89" cy="-352.64" r="6.449" gradientTransform="matrix(-.243 -.28 .263 -.227 109.224 -137.998)" gradientUnits="userSpaceOnUse"><stop offset="0" stop-color="#fff"/><stop offset="1"/></radialGradient><path fill="url(#aH)" d="M392.3 374.9c1-.8 2.4-.6 3.3.3.9.9.8 2.3 0 3.2-1 .8-2.4.6-3.3-.3-.9-1.1-.8-2.5 0-3.2z"/><radialGradient id="aI" cx="-1386.689" cy="-254.651" r="6.416" gradientTransform="matrix(-.243 -.28 .263 -.227 109.224 -137.998)" gradientUnits="userSpaceOnUse"><stop offset="0" stop-color="#fff"/><stop offset="1"/></radialGradient><path fill="url(#aI)" d="M377.8 305.9c.9-.8 2.3-.7 3.1.4 1 1 .9 2.6-.1 3.3-.9.8-2.5.6-3.2-.4-.7-1-.8-2.3.2-3.3z"/><radialGradient id="aJ" cx="-1548.868" cy="-290.173" r="3.986" gradientTransform="matrix(-.243 -.28 .263 -.227 109.224 -137.998)" gradientUnits="userSpaceOnUse"><stop offset="0" stop-color="#fff"/><stop offset="1"/></radialGradient><path fill="url(#aJ)" d="M408.4 360.2c.7-.6 1.6-.5 2 .2.5.6.5 1.5-.1 2s-1.4.3-2-.3c-.5-.6-.5-1.4.1-1.9z"/><radialGradient id="aK" cx="-1445.756" cy="-258.136" r="6.332" gradientTransform="matrix(-.243 -.28 .263 -.227 109.224 -137.998)" gradientUnits="userSpaceOnUse"><stop offset="0" stop-color="#fff"/><stop offset="1"/></radialGradient><path fill="url(#aK)" d="M391.2 323.3c.9-.8 2.4-.6 3.2.3.8.9.8 2.4-.1 3.1-1 .8-2.5.8-3.2-.3-1-.9-.9-2.3.1-3.1z"/><radialGradient id="aL" cx="-1560.661" cy="-413.966" r="11.249" gradientTransform="matrix(-.243 -.28 .263 -.227 109.224 -137.998)" gradientUnits="userSpaceOnUse"><stop offset="0" stop-color="#fff"/><stop offset="1"/></radialGradient><path fill="url(#aL)" d="M377 389.6c1.6-1.4 4.2-1.2 5.8.6 1.5 1.6 1.3 4.2-.3 5.7-1.5 1.3-4.2 1.1-5.7-.6-1.5-1.8-1.4-4.3.2-5.7z"/><radialGradient id="aM" cx="-6462.244" cy="8594.23" r="11.344" gradientTransform="matrix(.334 -.171 .154 .307 1131.592 -3506.785)" gradientUnits="userSpaceOnUse"><stop offset="0" stop-color="#fff"/><stop offset="1"/></radialGradient><path fill="url(#aM)" d="M302 229.8c.9 1.9.1 4.3-2 5.4-2 1-4.6.3-5.6-1.5-.8-2-.1-4.3 2-5.4 2.2-1.1 4.7-.5 5.6 1.5z"/><radialGradient id="aN" cx="-6590.036" cy="8643.555" r="19.828" gradientTransform="matrix(.334 -.171 .154 .307 1131.592 -3506.785)" gradientUnits="userSpaceOnUse"><stop offset="0" stop-color="#fff"/><stop offset="1"/></radialGradient><path fill="url(#aN)" d="M269.9 265.2c1.5 3.4-.1 7.6-3.7 9.5-3.7 1.9-7.9.7-9.7-2.7-1.7-3.4 0-7.5 3.7-9.3 3.6-2.1 7.9-.9 9.7 2.5z"/><radialGradient id="aO" cx="4266.539" cy="8287.517" r="11.175" gradientTransform="matrix(-.046 .371 -.343 -.038 3350.654 -1022.287)" gradientUnits="userSpaceOnUse"><stop offset="0" stop-color="#fff"/><stop offset="1"/></radialGradient><path fill="url(#aO)" d="M316.9 249.1c-2-.2-3.6-2.2-3.3-4.5.3-2.4 2.3-4.2 4.3-3.7 2.2.1 3.7 2.1 3.4 4.4-.3 2.3-2.2 4.1-4.4 3.8z"/><radialGradient id="aP" cx="4319.348" cy="8373.254" r="7.06" gradientTransform="matrix(-.046 .371 -.343 -.038 3350.654 -1022.287)" gradientUnits="userSpaceOnUse"><stop offset="0" stop-color="#fff"/><stop offset="1"/></radialGradient><path fill="url(#aP)" d="M285.4 263.9c-1.4-.2-2.2-1.4-2.2-2.9.3-1.4 1.5-2.5 2.7-2.3 1.4.1 2.3 1.4 2.1 2.8 0 1.5-1.2 2.6-2.6 2.4z"/><radialGradient id="aQ" cx="4455.372" cy="8453.299" r="11.152" gradientTransform="matrix(-.046 .371 -.343 -.038 3350.654 -1022.287)" gradientUnits="userSpaceOnUse"><stop offset="0" stop-color="#fff"/><stop offset="1"/></radialGradient><path fill="url(#aQ)" d="M251.5 312.9c-2.1-.2-3.6-2.4-3.3-4.5.2-2.3 2.1-4 4.4-3.7 2.1.3 3.6 2.2 3.2 4.5-.1 2.2-2.2 3.9-4.3 3.7z"/><radialGradient id="aR" cx="-6423.354" cy="9094.505" r="9.113" gradientTransform="matrix(.29 .237 -.22 .264 4246.407 -645.675)" gradientUnits="userSpaceOnUse"><stop offset="0" stop-color="#fff"/><stop offset="1"/></radialGradient><path fill="url(#aR)" d="M387.6 234.8c-1.2 1.3-3.2 1.3-4.6.2-1.5-1.2-1.8-3.3-.8-4.5 1.2-1.4 3.2-1.4 4.6-.3 1.5 1.3 1.9 3.1.8 4.6z"/><radialGradient id="aS" cx="-6452.933" cy="9083.665" r="5.122" gradientTransform="matrix(.29 .237 -.22 .264 4246.407 -645.675)" gradientUnits="userSpaceOnUse"><stop offset="0" stop-color="#fff"/><stop offset="1"/></radialGradient><path fill="url(#aS)" d="M380.2 223.9c-.6.8-1.8.9-2.5.2-.8-.7-.9-1.8-.4-2.6.7-.8 1.9-.8 2.6-.2.7.7 1 1.9.3 2.6z"/><radialGradient id="aT" cx="-6449.577" cy="9133.496" r="3.254" gradientTransform="matrix(.29 .237 -.22 .264 4246.407 -645.675)" gradientUnits="userSpaceOnUse"><stop offset="0" stop-color="#fff"/><stop offset="1"/></radialGradient><path fill="url(#aT)" d="M369.7 237.5c-.3.4-1.1.4-1.6 0s-.7-1-.3-1.6c.3-.4 1.1-.5 1.6-.1.6.5.6 1.3.3 1.7z"/><radialGradient id="aU" cx="-6458.994" cy="9034.295" r="8.982" gradientTransform="matrix(.29 .237 -.22 .264 4246.407 -645.675)" gradientUnits="userSpaceOnUse"><stop offset="0" stop-color="#fff"/><stop offset="1"/></radialGradient><path fill="url(#aU)" d="M390.4 210.5c-1.1 1.4-3.1 1.4-4.5.2s-1.8-3.2-.7-4.5c1.1-1.3 3.1-1.4 4.5-.2 1.4 1.1 1.7 3 .7 4.5z"/><radialGradient id="aV" cx="4650.257" cy="8050.724" r="9.042" gradientTransform="matrix(-.358 .107 -.103 -.329 2857.719 2381.055)" gradientUnits="userSpaceOnUse"><stop offset="0" stop-color="#fff"/><stop offset="1"/></radialGradient><path fill="url(#aV)" d="M361.9 233.7c-.6-1.6.4-3.5 2.2-4 1.8-.5 3.6.4 4.2 2 .4 1.7-.6 3.5-2.4 4-1.8.6-3.6-.3-4-2z"/><radialGradient id="aW" cx="4621.211" cy="8039.792" r="5.179" gradientTransform="matrix(-.358 .107 -.103 -.329 2857.719 2381.055)" gradientUnits="userSpaceOnUse"><stop offset="0" stop-color="#fff"/><stop offset="1"/></radialGradient><path fill="url(#aW)" d="M374.8 233.8c-.3-1 .3-2 1.4-2.2 1-.3 2 .2 2.4 1.1.3.9-.3 2-1.4 2.3-1 .1-2.1-.3-2.4-1.2z"/><radialGradient id="aX" cx="4754.467" cy="8118.174" r="5.068" gradientTransform="matrix(-.358 .107 -.103 -.329 2857.719 2381.055)" gradientUnits="userSpaceOnUse"><stop offset="0" stop-color="#fff"/><stop offset="1"/></radialGradient><path fill="url(#aX)" d="M319.1 222.3c-.3-.9.3-2 1.4-2.2 1-.3 2 .3 2.3 1.1.3.9-.3 2-1.3 2.2-1.1.2-2.1-.3-2.4-1.1z"/><radialGradient id="aY" cx="4624.382" cy="8089.863" r="3.197" gradientTransform="matrix(-.358 .107 -.103 -.329 2857.719 2381.055)" gradientUnits="userSpaceOnUse"><stop offset="0" stop-color="#fff"/><stop offset="1"/></radialGradient><path fill="url(#aY)" d="M369.3 217.5c-.2-.6.2-1.3.8-1.4.8-.2 1.4.2 1.5.8.2.5-.2 1.1-.9 1.3-.6.2-1.3-.2-1.4-.7z"/><radialGradient id="aZ" cx="4707.11" cy="8115.495" r="5.148" gradientTransform="matrix(-.358 .107 -.103 -.329 2857.719 2381.055)" gradientUnits="userSpaceOnUse"><stop offset="0" stop-color="#fff"/><stop offset="1"/></radialGradient><path fill="url(#aZ)" d="M336.3 218.1c-.3-.9.3-2 1.3-2.3 1-.3 2 .3 2.4 1.2.3 1-.3 1.9-1.4 2.2-1 .4-2-.2-2.3-1.1z"/><radialGradient id="ba" cx="4562.841" cy="8062.277" r="9.038" gradientTransform="matrix(-.358 .107 -.103 -.329 2857.719 2381.055)" gradientUnits="userSpaceOnUse"><stop offset="0" stop-color="#fff"/><stop offset="1"/></radialGradient><path fill="url(#ba)" d="M392 220.6c-.5-1.6.6-3.4 2.4-4 1.8-.5 3.6.3 4.1 2 .5 1.7-.5 3.5-2.3 3.9-1.7.5-3.7-.4-4.2-1.9z"/><radialGradient id="bb" cx="3156.168" cy="8296.04" r="9.025" gradientTransform="matrix(-.046 .371 -.343 -.039 3248.409 -524.304)" gradientUnits="userSpaceOnUse"><stop offset="0" stop-color="#fff"/><stop offset="1"/></radialGradient><path fill="url(#bb)" d="M260.3 327.8c-1.7-.3-2.9-1.9-2.6-3.7.3-1.9 1.8-3.1 3.6-3 1.7.2 2.9 1.9 2.6 3.7-.3 2-1.9 3.3-3.6 3z"/><radialGradient id="bc" cx="3165.55" cy="8353.766" r="5.175" gradientTransform="matrix(-.046 .371 -.343 -.039 3248.409 -524.304)" gradientUnits="userSpaceOnUse"><stop offset="0" stop-color="#fff"/><stop offset="1"/></radialGradient><path fill="url(#bc)" d="M240.4 327.7c-1-.2-1.8-1-1.6-2.1.2-.9 1.1-1.7 2-1.6 1 .1 1.6 1.1 1.6 2-.2 1-1.2 1.8-2 1.7z"/><radialGradient id="bd" cx="3126.812" cy="8285.194" r="5.093" gradientTransform="matrix(-.046 .371 -.343 -.039 3248.409 -524.304)" gradientUnits="userSpaceOnUse"><stop offset="0" stop-color="#fff"/><stop offset="1"/></radialGradient><path fill="url(#bd)" d="M265.5 315.9c-.9-.1-1.6-1-1.4-2.1 0-1.1.9-1.8 2-1.7 1.1.2 1.6 1.1 1.5 2-.1 1.1-1.1 2-2.1 1.8z"/><radialGradient id="be" cx="3130.175" cy="8335.234" r="3.278" gradientTransform="matrix(-.046 .371 -.343 -.039 3248.409 -524.304)" gradientUnits="userSpaceOnUse"><stop offset="0" stop-color="#fff"/><stop offset="1"/></radialGradient><path fill="url(#be)" d="M248.4 314.6c-.5-.2-1-.8-1-1.4.2-.5.8-1.1 1.2-.9.8 0 1.2.6 1 1.4-.1.4-.6 1-1.2.9z"/><radialGradient id="bf" cx="3212.934" cy="8360.77" r="5.271" gradientTransform="matrix(-.046 .371 -.343 -.039 3248.409 -524.304)" gradientUnits="userSpaceOnUse"><stop offset="0" stop-color="#fff"/><stop offset="1"/></radialGradient><path fill="url(#bf)" d="M235.6 345c-.9-.3-1.4-1.2-1.4-2.2.1-1 1-1.9 2-1.8 1 .2 1.7 1.1 1.5 2.2-.1 1-1.1 1.9-2.1 1.8z"/><radialGradient id="bg" cx="3068.45" cy="8307.446" r="8.972" gradientTransform="matrix(-.046 .371 -.343 -.039 3248.409 -524.304)" gradientUnits="userSpaceOnUse"><stop offset="0" stop-color="#fff"/><stop offset="1"/></radialGradient><path fill="url(#bg)" d="M260.4 294.9c-1.7-.2-3-1.8-2.6-3.7.1-1.9 1.7-3.2 3.4-3 1.7.3 2.9 1.9 2.7 3.7-.2 1.9-1.8 3.2-3.5 3z"/><radialGradient id="bh" cx="-1242.534" cy="-82.94" r="5.15" gradientTransform="matrix(-.283 -.24 .225 -.264 -72.272 -29.191)" gradientUnits="userSpaceOnUse"><stop offset="0" stop-color="#fff"/><stop offset="1"/></radialGradient><path fill="url(#bh)" d="M258.9 289.4c.7-.9 1.8-.9 2.6-.3.7.8.8 1.9.3 2.6-.7.7-1.9.8-2.6.1-.9-.4-1-1.6-.3-2.4z"/><radialGradient id="bi" cx="-1281.202" cy="-151.751" r="5.171" gradientTransform="matrix(-.283 -.24 .225 -.264 -72.272 -29.191)" gradientUnits="userSpaceOnUse"><stop offset="0" stop-color="#fff"/><stop offset="1"/></radialGradient><path fill="url(#bi)" d="M254.3 316.9c.7-.8 1.9-.8 2.6-.2.8.6 1 1.7.3 2.5-.7.7-1.8.8-2.6.2-.8-.6-.9-1.8-.3-2.5z"/><radialGradient id="bj" cx="-1147.925" cy="-73.162" r="5.147" gradientTransform="matrix(-.283 -.24 .225 -.264 -72.272 -29.191)" gradientUnits="userSpaceOnUse"><stop offset="0" stop-color="#fff"/><stop offset="1"/></radialGradient><path fill="url(#bj)" d="M234.4 264c.6-.7 1.8-.8 2.6-.1.9.7 1.1 2 .3 2.6-.7.7-1.9.8-2.6 0-.8-.5-1-1.6-.3-2.5z"/><radialGradient id="bk" cx="-1277.978" cy="-101.646" r="3.197" gradientTransform="matrix(-.283 -.24 .225 -.264 -72.272 -29.191)" gradientUnits="userSpaceOnUse"><stop offset="0" stop-color="#fff"/><stop offset="1"/></radialGradient><path fill="url(#bk)" d="M265.2 303.3c.4-.5 1.2-.6 1.6-.1.5.4.6 1.2.2 1.6-.4.5-1.1.4-1.6.1-.5-.4-.6-1.1-.2-1.6z"/><radialGradient id="bl" cx="-1195.285" cy="-75.954" r="5.077" gradientTransform="matrix(-.283 -.24 .225 -.264 -72.272 -29.191)" gradientUnits="userSpaceOnUse"><stop offset="0" stop-color="#fff"/><stop offset="1"/></radialGradient><path fill="url(#bl)" d="M247.1 276.2c.6-.8 1.8-.8 2.6-.1.7.6.9 1.8.3 2.6-.7.7-1.9.9-2.6.1-.8-.8-1-1.9-.3-2.6z"/><radialGradient id="bm" cx="-1287.429" cy="-200.932" r="9.021" gradientTransform="matrix(-.283 -.24 .225 -.264 -72.272 -29.191)" gradientUnits="userSpaceOnUse"><stop offset="0" stop-color="#fff"/><stop offset="1"/></radialGradient><path fill="url(#bm)" d="M243.9 330.4c1.1-1.4 3.2-1.4 4.7-.3 1.4 1.1 1.5 3.2.4 4.5-1.1 1.3-3.1 1.4-4.6.3-1.3-1.2-1.6-3.1-.5-4.5z"/><radialGradient id="bn" cx="447.266" cy="136.618" r="160.155" gradientTransform="matrix(.756 0 0 .688 69.912 178.173)" gradientUnits="userSpaceOnUse"><stop offset="0" stop-color="#FF00F1"/><stop offset=".064" stop-color="#FA05F0"/><stop offset=".139" stop-color="#EC13EC"/><stop offset=".218" stop-color="#D52AE5"/><stop offset=".301" stop-color="#B44BDB"/><stop offset=".387" stop-color="#8B74CF"/><stop offset=".476" stop-color="#57A8C0"/><stop offset=".564" stop-color="#1CE3AF"/><stop offset=".602" stop-color="#00FFA7"/><stop offset=".842" stop-color="#00FF61"/><stop offset="1" stop-color="#00FF31"/></radialGradient><path opacity=".5" fill="url(#bn)" enable-background="new" d="M562.1 275.4c-51.2-70.2-132.9-71.5-166-71.6-47.9-.1-95 21.1-122.1 55.9-7.6 9.7-16 18.9-19.8 30.3 11.8-8.9 44.5-85.6 156.5-74.7 94.3 4.8 124.2 57.5 134.3 74.4-67.6-52.8-128.8-52.6-150.8-55.5-21-2.7-52-1.4-68.6 12.2 46.5-18.3 154-4.1 186.8 42.3 5.7 8.8 6.1 17.8 9.3 26.9-2.6-6-17.2-14.4-23.8-16.7-6.7-2.3-14.7-2.5-21.9-3.9-15.7-2.8-30.4-5.3-39.7-18.5-3.6-5.2-8.4-11.7-10.3-17.4-1.5-4.8-.6-9.6-3.8-14.2-5.5-7.9-17.6-16-25.8-21.3 8.9 8.9 16.8 17.2 21.2 28.8 3.9 10.3 7.3 21.8 14.5 30.9 7.3 9.3 22.4 17.9 34.7 20.2 12.8 2.4 21.8 3.1 27.9 14.8-5.6-6-27.5-2.5-36-4.7-7.7-2-13.4-5.9-20.8-8.1-7.3-2.2-15.4-1.9-23.1-1.9 8.7-.4 17.4 1.4 25.2 6.6 6 3.9 11.2 7.7 18.6 8.9 11.4 1.9 28.4-1 35.5 8.8-13.2 12.7-47.5 5.2-59.3-5.2 17 24.5 55.2 16.9 80.2 14.5-.1-.7-.6-1.1-1.4-1.3"/><path opacity=".4" fill="#DB00E7" enable-background="new" d="M421.3 229M397.2 227.5M447.9 243.8M511.6 284.6c-10.5-2.2-24.1-13.2-32.1-20.1"/><radialGradient id="bo" cx="408.489" cy="141.185" r="118.121" gradientTransform="matrix(.756 0 0 .755 69.912 159.715)" gradientUnits="userSpaceOnUse"><stop offset="0" stop-color="#FF00F1"/><stop offset=".064" stop-color="#FA05F0"/><stop offset=".139" stop-color="#EC13EC"/><stop offset=".218" stop-color="#D52AE5"/><stop offset=".301" stop-color="#B44BDB"/><stop offset=".387" stop-color="#8B74CF"/><stop offset=".476" stop-color="#57A8C0"/><stop offset=".564" stop-color="#1CE3AF"/><stop offset=".602" stop-color="#00FFA7"/><stop offset=".842" stop-color="#00FF61"/><stop offset="1" stop-color="#00FF31"/></radialGradient><path opacity=".6" fill="url(#bo)" enable-background="new" d="M498.3 290.5c-17.7-18.5-39.3-21-62.3-28.2-11.9-3.7-23.4-7.1-34.2-13.3-11.1-6.4-23-11.7-35.6-14.1-19.4-3.7-38.2-12.2-58-3.7-11.2 4.8-19.6 13.2-28 21.5-7.6 7.5-18.3 16.7-21.5 27.2-.1-8.8 18.9-22.5 25.8-28 10.4-8.2 22.6-15.2 35.9-17.6 27.6-4.9 53.8 10.3 78.5 20.7 17.4 7.4 37.7 6.6 54.9 13.3 10.5 4.1 42.4 15 42.2 28.6-11.1 5-18.2-2.2-28.1-5.8-9.4-3.4-18.5-.6-28.2-2.2-17.6-3.1-33.3-22.5-53.2-12.1 10.4.7 18.9-1 28 4 9.4 5.3 18.4 9.9 29 11 12.7 1.2 19.4-.9 29.8 7.2 5.4 4.2 21.9 10.5 25.8 1.7"/><radialGradient id="bp" cx="599.056" cy="147.346" r="42.864" gradientTransform="matrix(.727 0 0 .727 90 168.154)" gradientUnits="userSpaceOnUse"><stop offset=".195" stop-color="#fff"/><stop offset=".525" stop-color="#969696"/><stop offset="1" stop-color="#1C1C1C"/></radialGradient><path fill="url(#bp)" d="M506.9 272.3c7.9-9.8 28.2-13.5 39-10.5 1 .2 1.8 1.1 2.3 1.6-2.2.1-9.3 1.4-12.2 5.1-4.9-.6-16.4.4-23.5 4.4-1.7-.7-3.4-1.2-5.6-.6z"/><radialGradient id="bq" cx="634.284" cy="150.625" r="33.699" gradientTransform="matrix(.727 0 0 .727 90 168.154)" gradientUnits="userSpaceOnUse"><stop offset="0" stop-color="#fff"/><stop offset=".119" stop-color="#FBFBFB"/><stop offset=".249" stop-color="#EDEDED"/><stop offset=".385" stop-color="#D7D7D7"/><stop offset=".524" stop-color="#B9B9B9"/><stop offset=".667" stop-color="#919191"/><stop offset=".809" stop-color="#626262"/><stop offset=".912" stop-color="#3B3B3B"/></radialGradient><path fill="url(#bq)" d="M569.5 272.8l4.4.8c-3.5-3.1-14.7-11.6-27.5-11.6.8.3 1.4 1 1.9 1.4 10.6.9 17.4 6.1 21.2 9.4z"/><radialGradient id="br" cx="637.149" cy="188.312" r="60.775" fx="584.926" fy="157.226" gradientTransform="matrix(.727 0 0 .727 90 168.154)" gradientUnits="userSpaceOnUse"><stop offset=".705" stop-color="#fff"/><stop offset=".904" stop-color="#595959"/><stop offset="1" stop-color="#F0F0F0"/></radialGradient><path fill="url(#br)" d="M568.5 283.6c5.6 6.1 8.9 11.6 12.1 20.7 6 1.7 10.7 5.3 12.2 8.5l.7-8.8c-2.6-11.8-9.4-22.1-19.4-30.3l-4.4-.8c.6 4.1.2 8.1-1.2 10.7z"/><radialGradient id="bs" cx="591.475" cy="251.81" r="32.579" gradientTransform="matrix(.727 0 0 .727 90 168.154)" gradientUnits="userSpaceOnUse"><stop offset=".387" stop-color="#1C1C1C"/><stop offset=".686" stop-color="#969696"/><stop offset=".929" stop-color="#fff"/></radialGradient><path fill="url(#bs)" d="M499.5 354.4l5.1 1.4c4.8 3.8 13.1 9.2 21.8 9.9 1 2.3 3.2 4.4 6 6-19.4-2.4-26.3-9.8-32.9-17.3z"/><radialGradient id="bt" cx="641.044" cy="233.987" r="47.169" gradientTransform="matrix(.727 0 0 .727 90 168.154)" gradientUnits="userSpaceOnUse"><stop offset=".383" stop-color="#1C1C1C"/><stop offset=".77" stop-color="#969696"/><stop offset="1" stop-color="#fff"/></radialGradient><path fill="url(#bt)" d="M561.5 358.3c5.9-3.2 12.2-9.2 15.4-16.9 5.5-.8 9.9-3 13.1-6.6-.3 2-.8 4.3-1.6 6.9-3.2 9.3-11.5 21.5-28.3 26.4 1.3-2.8 1.7-6.3 1.4-9.8z"/><radialGradient id="bu" cx="682.01" cy="209.615" r="30.83" gradientTransform="matrix(.727 0 0 .727 90 168.154)" gradientUnits="userSpaceOnUse"><stop offset=".333" stop-color="#1C1C1C"/><stop offset=".638" stop-color="#969696"/><stop offset="1" stop-color="#fff"/></radialGradient><path fill="url(#bu)" d="M593.3 303.9l-.7 8.8c2.2 8.8-.6 18.5-2.6 22v.4c-.3 1.8-.8 4-1.5 6.3l.4.1c5.6-6.3 10.3-23.6 4.4-37.6z"/><radialGradient id="bv" cx="601.102" cy="207.568" r="64.109" gradientTransform="matrix(.727 0 0 .727 90 168.154)" gradientUnits="userSpaceOnUse"><stop offset=".136" stop-color="#fff"/><stop offset=".216" stop-color="#F4F4F4"/><stop offset=".359" stop-color="#D6D6D6"/><stop offset=".547" stop-color="#A5A5A5"/><stop offset=".771" stop-color="#626262"/><stop offset=".822" stop-color="#525252"/><stop offset=".847" stop-color="#575757"/><stop offset=".879" stop-color="#676767"/><stop offset=".914" stop-color="#818181"/><stop offset=".952" stop-color="#A5A5A5"/><stop offset=".991" stop-color="#D3D3D3"/><stop offset="1" stop-color="#DEDEDE"/></radialGradient><path fill="url(#bv)" d="M540.2 357.3c-3.1-4.7-5.8-10-7.1-17.9-8.7-3.1-16.1-6.9-22.1-11.2l-12.7 8.9c0 7.6 3.2 13.9 6.4 18.7 4.8 3.8 13.1 9.2 21.8 9.9 4.7-1.7 9.2-4.5 13.7-8.4z"/><radialGradient id="bw" cx="621.38" cy="207.158" r="63.138" gradientTransform="matrix(.727 0 0 .727 90 168.154)" gradientUnits="userSpaceOnUse"><stop offset=".096" stop-color="#fff"/><stop offset=".793" stop-color="#424242"/><stop offset=".818" stop-color="#484848"/><stop offset=".849" stop-color="#585858"/><stop offset=".885" stop-color="#717171"/><stop offset=".922" stop-color="#969696"/><stop offset=".962" stop-color="#C4C4C4"/><stop offset="1" stop-color="#F7F7F7"/></radialGradient><path fill="url(#bw)" d="M571.7 323c-7.8-.6-15.6-1.3-23.5-1.9-3 5.8-10.8 13.3-15.1 18.2 1.3 7.9 4 13.3 7.1 17.9 6.4 2.6 14.5 2.1 21.3.9 5.9-3.2 12.2-9.2 15.4-16.9-.6-5.4-2.1-12.1-5.2-18.2z"/><radialGradient id="bx" cx="592.294" cy="163.12" r="86.471" gradientTransform="matrix(.727 0 0 .727 90 168.154)" gradientUnits="userSpaceOnUse"><stop offset=".327" stop-color="#fff"/><stop offset=".912" stop-color="#8A8A8A"/><stop offset="1" stop-color="#A8A8A8"/></radialGradient><path fill="url(#bx)" d="M580.5 304.2c-3.1-9.2-6.3-14.4-11.9-20.6l-.3-.2c-3.7-.9-15-3.2-21.2-1.6-5 5.4-7.8 12-11 17.7 5.2 7.3 9.4 14.4 12.2 21.6 7.8.6 15.6 1.3 23.5 1.9 3.8-5.4 7.2-12.1 8.7-18.8z"/><radialGradient id="by" cx="594.883" cy="158.55" r="35.421" gradientTransform="matrix(.727 0 0 .727 90 168.154)" gradientUnits="userSpaceOnUse"><stop offset=".167" stop-color="#fff"/><stop offset=".303" stop-color="#F9F9F9"/><stop offset=".489" stop-color="#E7E7E7"/><stop offset=".704" stop-color="#CBCBCB"/><stop offset=".937" stop-color="#A3A3A3"/><stop offset=".938" stop-color="#A3A3A3"/></radialGradient><path fill="url(#by)" d="M501.7 291.5l12 12.3c5.4-1.8 14.1-3.5 22.4-4.2 3.2-5.7 6-12.2 11-17.7-2.6-4.8-7.9-10.8-11-13.4-4.9-.6-16.4.4-23.5 4.4-6.2 5.6-9.1 12.6-10.9 18.6z"/><radialGradient id="bz" cx="622.201" cy="179.709" r="88.719" gradientTransform="matrix(.727 0 0 .727 90 168.154)" gradientUnits="userSpaceOnUse"><stop offset=".444" stop-color="#fff"/><stop offset=".53" stop-color="#FAFAFA"/><stop offset=".625" stop-color="#EDEDED"/><stop offset=".725" stop-color="#D7D7D7"/><stop offset=".828" stop-color="#B8B8B8"/><stop offset=".872" stop-color="#A8A8A8"/><stop offset=".893" stop-color="#A8A8A8"/></radialGradient><path fill="url(#bz)" d="M486.9 323.9c-.8-7.3-.7-17 3.2-24.2 2.3-2.6 5.8-6.8 11.6-8.2l12 12.3c-2.7 8.8-3.3 17.1-2.7 24.3l-12.7 8.9c-4.5-2.3-8.9-6.4-11.4-13.1z"/><radialGradient id="bA" cx="550.51" cy="187.903" r="38.767" gradientTransform="matrix(.727 0 0 .727 90 168.154)" gradientUnits="userSpaceOnUse"><stop offset=".089" stop-color="#fff"/><stop offset=".477" stop-color="#969696"/><stop offset="1" stop-color="#1C1C1C"/></radialGradient><path fill="url(#bA)" d="M490.3 292.4c-8.3 11.2-7.7 27.6-4 37.4-.3-2-.2-4 .6-5.9-.8-7.3-.7-17 3.2-24.2-1.1-2.8-.3-5.8.2-7.3z"/><radialGradient id="bB" cx="643.91" cy="190.769" r="56.923" gradientTransform="matrix(.727 0 0 .727 90 168.154)" gradientUnits="userSpaceOnUse"><stop offset=".096" stop-color="#C4C4C4"/><stop offset=".764"/><stop offset="1" stop-color="#141414"/></radialGradient><path fill="url(#bB)" d="M592.6 312.7c-1.4-3.2-6.2-6.8-12.2-8.5-1.5 6.6-4.8 13.3-8.8 18.8 3.1 6 4.6 12.8 5.2 18.4 5.5-.8 9.9-3 13.1-6.6 2.1-3.5 5-13.2 2.7-22.1z"/><radialGradient id="bC" cx="599.668" cy="164.757" r="97.872" gradientTransform="matrix(.727 0 0 .727 90 168.154)" gradientUnits="userSpaceOnUse"><stop offset=".638" stop-color="#fff"/><stop offset=".78" stop-color="#262626"/><stop offset="1"/></radialGradient><path fill="url(#bC)" d="M486.9 323.9c-.9 2.2-.9 4.7-.4 7.1 1.6 9.3 7 18.1 13.1 23.4l5.1 1.4c-3.1-4.8-6.3-11-6.4-18.7-4.5-2.4-8.9-6.5-11.4-13.2z"/><radialGradient id="bD" cx="599.668" cy="189.748" r="53.426" gradientTransform="matrix(.727 0 0 .727 90 168.154)" gradientUnits="userSpaceOnUse"><stop offset=".592" stop-color="#fff"/><stop offset=".835" stop-color="#262626"/><stop offset="1"/></radialGradient><path fill="url(#bD)" d="M501.7 291.5c1.9-5.9 4.8-13 11-18.6-2.5-.9-4.6-1.5-7.7.3-4.4 2.5-12 10.5-14.5 18.5-.3 1.3-1.7 4.8-.4 8 2.3-2.5 5.8-6.8 11.6-8.2z"/><radialGradient id="bE" cx="593.73" cy="161.887" r="74.024" gradientTransform="matrix(.727 0 0 .727 90 168.154)" gradientUnits="userSpaceOnUse"><stop offset="0" stop-color="#B0B0B0"/><stop offset=".732"/><stop offset="1" stop-color="#212121"/></radialGradient><path fill="url(#bE)" d="M548.2 321.1c-2.8-7.2-6.9-14.3-12.2-21.6-8.3.8-17 2.5-22.4 4.2-2.7 8.8-3.3 17.1-2.7 24.3 6 4.3 13.4 8.1 22.1 11.2 4.4-4.7 12.2-12.3 15.2-18.1z"/><radialGradient id="bF" cx="611.549" cy="192.206" r="67.196" gradientTransform="matrix(.727 0 0 .727 90 168.154)" gradientUnits="userSpaceOnUse"><stop offset=".473" stop-color="#fff"/><stop offset=".495" stop-color="#EAEAEA"/><stop offset=".589" stop-color="#979797"/><stop offset=".665" stop-color="#5A5A5A"/><stop offset=".722" stop-color="#353535"/><stop offset=".751" stop-color="#262626"/><stop offset="1"/></radialGradient><path fill="url(#bF)" d="M548.2 263.4c-2.2.1-9.3 1.4-12.2 5.1 3.1 2.6 8.3 8.6 11 13.4 6.4-1.5 17.8.8 21.3 1.7 1.4-2.5 1.9-6.5 1-10.8-3.6-3.3-10.4-8.5-21.1-9.4z"/><radialGradient id="bG" cx="617.079" cy="222.316" r="59.928" gradientTransform="matrix(.727 0 0 .727 90 168.154)" gradientUnits="userSpaceOnUse"><stop offset=".807"/><stop offset="1" stop-color="#171717"/></radialGradient><path fill="url(#bG)" d="M540.2 357.3c-4.4 3.9-8.9 6.7-13.8 8.4 1 2.3 3.2 4.4 6 6 6.3 1.9 17.5 2.5 27.6-3.7 1.4-2.7 1.8-6.4 1.4-9.8-6.7 1.3-14.9 1.8-21.2-.9z"/><radialGradient id="bH" cx="618.745" cy="204.715" r="77.366" gradientTransform="matrix(.727 0 0 .727 90 168.154)" gradientUnits="userSpaceOnUse"><stop offset=".458" stop-color="#5A5A5A"/><stop offset=".536" stop-color="#5E5E5E"/><stop offset=".621" stop-color="#6C6C6C"/><stop offset=".709" stop-color="#828282"/><stop offset=".8" stop-color="#A0A0A0"/><stop offset=".893" stop-color="#C8C8C8"/><stop offset=".986" stop-color="#F7F7F7"/><stop offset="1" stop-color="#fff"/></radialGradient><path fill="url(#bH)" d="M593.4 303.9c-2.6-11.6-9.1-21.8-19.4-30.4-4.7-4.2-15.8-11.6-27.6-11.6-.2-.1-.3-.1-.4-.2-2.4-.7-5.4-1-8.5-1-10.2 0-24.1 3.6-30.6 11.6-.7.2-1.4.5-2 .9-4.3 2.5-12 10.5-14.5 18.5 0 .2-.1.4-.2.7-3.7 5.1-6 11.8-6.5 19.3-.4 6.3.5 12.9 2.5 18.2.1.3.1.8.2 1.2 1.5 8.7 6.5 17.7 13.1 23.5 3.5 4 6.7 7.6 11.6 10.6 5.5 3.5 12.5 5.7 21.3 6.8 2.9.9 6.3 1.3 9.6 1.3 4.6 0 11.4-.8 18-5 19.2-5.6 26.2-20.4 28.3-26.4 0-.1 0-.1.1-.2l.4.1c3-3.4 5.4-9.5 6.5-16 1.5-8 .7-15.6-1.9-21.9zm-4.7 32.1c-.1.1-.2.2-.3.2-.2.2-.3.3-.4.3l-.3.3-.4.3-.3.3c-.2.1-.3.2-.4.3-.1.1-.3.2-.3.3-.2.1-.3.2-.4.3-.1.1-.3.2-.3.3-.2.1-.3.2-.4.3-.1.1-.3.2-.3.2-.2.1-.3.2-.4.3-.2.1-.3.2-.4.2-.2.1-.3.2-.4.2-.2.1-.3.1-.4.2-.2.1-.3.1-.4.2-.2.1-.3.1-.4.2-.2.1-.3.1-.4.2-.2.1-.3.1-.4.2l-.5.2c-.2.1-.3.1-.4.2l-.5.2c-.2 0-.3.1-.4.1l-.5.1c-.2 0-.3.1-.4.1l-.5.1s-.3.1-.5.1l-.5.1v-.3c0-.2 0-.3-.1-.6 0-.1 0-.3-.1-.3l-.1-.6s0-.3-.1-.4c0-.2-.1-.3-.1-.6 0-.2-.1-.3-.1-.4 0-.2-.1-.3-.1-.6l-.1-.5s-.1-.3-.1-.6l-.1-.6s-.1-.3-.1-.5l-.2-.7-.1-.5-.2-.8c0-.2-.1-.3-.1-.4l-.3-.9c0-.1-.1-.3-.1-.3-.1-.3-.2-.7-.3-1.1v-.2c-.5-1.6-1.1-3.3-1.8-5l-.1-.3c-.2-.3-.3-.7-.4-1-.1-.1-.1-.3-.2-.3-.2-.3-.3-.6-.4-.9l.5-.8c.1-.1.2-.3.3-.3l.5-.8c.1-.1.2-.3.3-.3.2-.3.3-.6.6-.9l.2-.3.7-1.1c.7-1.2 1.4-2.4 2-3.6l.1-.3c.2-.3.3-.7.4-.9.1-.1.1-.3.2-.3.2-.3.3-.6.4-.9.1-.2.1-.3.2-.4.1-.3.3-.5.3-.8.1-.2.1-.3.2-.4l.3-.8.2-.5.3-.7.2-.5c.1-.2.2-.4.2-.6l.2-.6s.1-.4.2-.6l.2-.6s.1-.3.2-.5l.2-.7c0-.2.1-.3.1-.4l.5.2.5.2.5.2.5.2c.2.1.3.2.5.2.2.1.3.1.4.2l.5.3s.3.1.4.2l.6.3c.1.1.3.1.3.2.3.1.4.3.7.3.1 0 .2.1.3.2.3.2.5.3.8.4 0 0 .1 0 .1.1 2.5 1.6 4.5 3.6 5.4 5.4.2.6.3 1.1.3 1.7 1.5 8.7-1.4 17.3-3.1 20.2l-.6.7-.2.2c-.8-.7-1-.6-1.1-.4zm-12.5 6.6l-.4.8-.3.5c-.2.3-.3.6-.4.9-.1.2-.2.3-.3.4-.2.3-.3.6-.6.9l-.2.3-.7 1c-.1.1-.1.2-.2.2-.3.3-.5.8-.9 1.1l-.1.1c-1.8 2.3-3.9 4.4-6.2 6.2l-.3.2c-.3.3-.6.5-.9.7-.2.2-.3.3-.5.3-.3.2-.4.3-.7.4-.3.2-.4.3-.7.4-.2.1-.3.3-.5.3l-.8.5c-.2.1-.3.2-.4.3-.1 0-.2 0-.3.1l-1.1.2c-.3 0-.5.1-.9.1l-.5.1c-.4.1-.9.1-1.2.2h-.1c-2.1.3-4.2.4-6.1.4h-2.1c-.3 0-.7 0-1-.1-.2 0-.4 0-.6-.1l-.9-.1-.6-.1c-.3 0-.6-.1-.8-.1l-.6-.1-.8-.2c-.2-.1-.3-.1-.6-.2l-.8-.2-.5-.2c-.3-.1-.5-.2-.7-.3l-.5-.2-.7-.3-.3-.5c-.1-.1-.2-.2-.2-.3-.1-.2-.2-.3-.3-.4s-.2-.3-.3-.4c-.1-.2-.2-.3-.3-.4l-.3-.5s-.2-.3-.3-.4-.2-.3-.3-.5c-.1-.2-.2-.3-.2-.4-.1-.2-.2-.3-.3-.6-.1-.1-.1-.3-.2-.3-.1-.2-.3-.4-.3-.6l-.2-.3c-.1-.3-.3-.5-.3-.8 0 0 0-.1-.1-.1-.4-.9-.8-1.8-1.1-2.7-.1-.2-.2-.3-.2-.5-.1-.2-.2-.4-.2-.6l-.3-.6-.2-.6c-.1-.3-.2-.4-.2-.7-.1-.2-.1-.4-.2-.7-.1-.3-.2-.4-.2-.7l-.2-.7-.2-.7-.2-.8-.2-.7-.2-.8-.1-.7.3-.3c.2-.2.3-.3.4-.5l.3-.3.4-.4 1.5-1.6 1.2-1.3.5-.5.2-.2c.3-.3.4-.5.7-.7.1-.1.2-.3.3-.3.2-.2.3-.4.6-.6l.3-.3.6-.7.3-.3c.2-.3.4-.5.6-.7l.3-.3c.2-.3.4-.5.6-.7.1-.1.2-.3.3-.3.2-.3.3-.4.6-.7.1-.1.2-.3.3-.3l.5-.7c.1-.1.2-.3.3-.3l.5-.6c.1-.1.2-.3.3-.3.2-.2.3-.4.4-.6s.2-.3.3-.4c.2-.2.3-.3.4-.6.1-.2.2-.3.3-.4.2-.2.3-.3.3-.5.1-.2.2-.3.3-.4.1-.2.3-.3.3-.5s.2-.3.3-.4.2-.3.3-.5.2-.3.3-.4c.1-.2.2-.3.3-.4l22.6 1.9.8.1.3.5c.1.3.3.5.3.8l.3.5c.1.3.3.5.3.7l.3.6.3.7.3.6.3.6.3.7c.1.2.2.3.2.6l.3.9c0 .2.1.3.1.4.1.4.3.8.3 1.2v.1c1 3.6 1.5 7 1.8 9.5-.1.3-.3.5-.3.8.4.1.3.3.2.4zm-37 15.4c-.2.2-.3.3-.5.4-.1.1-.3.2-.3.3-.2.2-.3.3-.5.3-.1.1-.3.2-.3.3l-.4.3c-.1.1-.3.2-.3.3l-.4.3c-.2.1-.3.2-.4.3-.2.1-.3.2-.4.3-.2.1-.3.2-.4.3s-.3.2-.4.3c-.2.1-.3.2-.4.3-.2.1-.3.2-.4.3-.2.1-.3.2-.4.3-.1.1-.3.2-.3.2l-.5.3-.3.2c-.2.1-.4.3-.6.3l-.2.1c-1.4.7-2.6 1.4-4 1.9l-.2.1-.6.3-.3.1h-.3c-.2 0-.3 0-.4-.1-.1 0-.3 0-.3-.1-.2 0-.3 0-.4-.1-.1 0-.3 0-.3-.1-.2 0-.3-.1-.4-.1-.1 0-.2 0-.3-.1l-.5-.1c-.1 0-.2 0-.3-.1l-.5-.1-.3-.1c-.2 0-.3-.1-.5-.2-.1 0-.2 0-.3-.1l-.5-.2c-.1 0-.1 0-.2-.1l-.6-.2h-.1c-.2-.1-.4-.2-.6-.2h-.1c-2.7-.9-5.3-2.2-7.6-3.6 0 0-.1 0-.1-.1-.2-.1-.3-.2-.4-.3l-.3-.2c-.1-.1-.3-.2-.3-.2l-.3-.2-.3-.2c-.1-.1-.3-.2-.3-.2l-.3-.2c-.2-.1-.3-.2-.4-.3l-.2-.1-.5-.3-.2-.1c-.2-.1-.3-.2-.4-.3l-.2-.1c-.2-.1-.3-.2-.4-.3l-.2-.1c-.2-.1-.3-.2-.4-.3 0 0-.1 0-.1-.1-.2-.1-.3-.3-.5-.3l-1-.8s-.1 0-.1-.1l-.4-.3c-1.4-2-2.9-4.7-4.2-7.8-.1-.2-.2-.3-.2-.5v-.1l-.2-.5c0-.1 0-.1-.1-.2-.1-.2-.1-.3-.2-.4l-.1-.2c-.1-.2-.1-.3-.2-.4l-.1-.3c0-.2-.1-.3-.1-.4l-.1-.3c0-.1-.1-.3-.1-.3s-.1-.2-.1-.3l-.1-.3-.1-.3c0-.1-.1-.3-.1-.3 0-.1-.1-.3-.1-.3 0-.1-.1-.3-.1-.3 0-.1-.1-.3-.1-.3 0-.1 0-.3-.1-.3 0-.1-.1-.3-.1-.3 0-.1 0-.3-.1-.3 0-.1 0-.3-.1-.3v-.3s0-.3-.1-.3v-2.8l12.3-8.7.3-.2c.2.1.3.2.4.3l.7.5c.2.1.3.2.4.3.3.2.5.3.7.5.2.1.3.2.4.3l.8.5c.2.1.3.2.4.3.3.2.6.3.8.5.1.1.3.2.3.3l.9.5.3.2c.3.2.7.3 1 .6.1 0 .2.1.2.1 3.4 1.9 7.1 3.7 11.1 5.2l.2.1c.4.2.9.3 1.4.5l.3.1c.4.2.8.3 1.4.5l.3.1c0 .3.1.5.2.9l.1.7c.1.3.1.5.2.9.1.2.1.4.2.7.1.3.2.5.2.8l.2.6.3.8.2.5c.2.4.3.9.4 1.3.1.2.1.3.2.4.1.3.2.5.3.9.1.2.1.3.2.4.1.3.2.5.3.7.1.2.1.3.2.4l.3.7c.1.2.2.3.2.4l.3.6c.1.2.2.3.3.4l.3.6c.1.2.2.3.3.4.1.2.2.3.3.6.1.2.2.3.3.4s.2.3.3.5c.1.2.2.3.3.4l.3.5c.1.2.2.3.3.4s.2.3.3.5c.1.2.2.3.3.4.1.2.2.3.3.4.1.1.2.3.3.3.1.2.2.3.3.4l-.4.4c-1 0-1.2.1-1.3.2zm-41.2-21.2l-.2-.1-.2-.1-.2-.1-.2-.1s-.1-.1-.2-.1-.2-.1-.2-.1l-.2-.1c-.1-.1-.2-.1-.2-.2l-.2-.1c-.1-.1-.2-.1-.2-.2l-.2-.1c-.1-.1-.2-.1-.2-.2l-.2-.1-.3-.2-.2-.1-.3-.2c-.1 0-.1-.1-.2-.2s-.2-.1-.2-.2l-.2-.2c-.1-.1-.2-.1-.2-.2l-.2-.2c-.1-.1-.2-.1-.2-.2l-.2-.2c-.1-.1-.2-.1-.2-.2l-.2-.2-.2-.2-.2-.2-.2-.2-.2-.2-.2-.2-.2-.2c-.1-.1-.2-.2-.2-.3-.1-.1-.1-.2-.2-.2-.1-.1-.2-.2-.2-.3l-.2-.3-.2-.3s-.1-.2-.2-.3l-.2-.3-.2-.3-.2-.3-.2-.3-.2-.3-.2-.3-.2-.3-.2-.3-.2-.3s-.1-.2-.2-.3l-.2-.3-.2-.3-.2-.3-.2-.3-.2-.3c-.1-.1-.1-.3-.2-.3l-.2-.3c-.1-.2-.2-.3-.2-.4l-.3-.5c-.1-.1-.1-.3-.2-.3-.1-.1-.1-.3-.2-.3-.1-.1-.1-.3-.2-.3-.1-.2-.1-.3-.2-.4l-.1-.3c0-.2 0-.4-.1-.7v-.2c0-.2 0-.3-.1-.5v-3.6000000000000005c-.2-5.3.3-11.2 2.2-16.4v-.1l.3-.7.1-.2.3-.5.1-.3.3-.5.1-.3c.1-.2.2-.3.3-.4.2-.2.4-.4.6-.7.2-.2.3-.3.4-.5l.2-.2c.1-.1.2-.3.3-.3l.3-.3c.1-.1.2-.2.2-.3l.3-.3.3-.3.3-.3.3-.3.3-.3.3-.3.3-.3.3-.3c.1-.1.3-.2.3-.3.1-.1.3-.2.3-.3.1-.1.3-.2.3-.3.1-.1.3-.2.3-.3.1-.1.3-.2.3-.3.1-.1.3-.2.3-.3.1-.1.3-.2.3-.3.2-.1.3-.2.4-.3.2-.1.3-.2.4-.3.2-.1.3-.2.4-.3s.3-.2.4-.2c.2-.1.3-.2.4-.2.2-.1.3-.1.4-.2.2-.1.3-.1.4-.2.2-.1.3-.1.4-.2.2-.1.3-.1.4-.2l.5-.2c.2-.1.3-.1.4-.1l11.9 12.2-.3.8c-.1.3-.2.5-.2.7l-.3.8c-.1.3-.2.5-.2.7-.1.3-.2.5-.2.8-.1.3-.1.5-.2.7l-.2.8-.2.8c-.1.3-.1.5-.2.7-.1.3-.1.5-.2.9 0 .3-.1.5-.1.7l-.2.8c0 .3-.1.5-.1.7 0 .3-.1.5-.1.9 0 .2 0 .3-.1.5l-.3 2c0 .2 0 .4-.1.6 0 .3 0 .6-.1.9 0 .3 0 .4-.1.7v7.899999999999999c0 .3 0 .5.1.8 0 .3 0 .5.1.8l-12.6 8.8-.2-.1c2.1 2.2 2.1 2.2 2 2.1zm3.9-45.8c0-.2.1-.3.1-.4 0-.1 0-.1.1-.2 0-.1.1-.3.1-.3 0-.1.1-.2.1-.2l.1-.3.1-.3.1-.3.1-.3.1-.3c.1-.2.1-.3.2-.4 0-.1 0-.1.1-.2l.2-.5v-.1c1.8-4.6 4.6-9.9 9.4-14.4 3.9-2.1 9.2-3.5 14-4.1 2.2-.3 4.3-.4 6.3-.4h3.0999999999999996l.3.3c.1.1.2.2.3.2l.4.4c.1.1.2.2.3.2l.5.5.2.2.7.7.1.1c1 1 2 2.1 3 3.3l.1.1.7.8c.1.1.1.2.2.2l.6.8c.1.1.2.2.2.3l.5.7.3.3c.2.2.3.4.4.6.1.1.2.3.3.3.2.2.3.4.4.6.1.1.2.3.3.3.1.2.3.3.3.6.1.2.2.3.3.4s.3.3.3.5c.1.2.2.3.3.4l.3.5c-.1.1-.2.3-.3.3l-.4.4c-.1.1-.2.3-.3.3l-.3.4c-.1.1-.2.3-.3.3l-.3.4s-.2.3-.3.4l-.3.4c-.1.2-.2.3-.3.4-.1.2-.2.3-.3.4-.1.2-.2.3-.3.4-.1.1-.2.3-.3.3-.1.2-.3.3-.3.5-.1.1-.2.3-.3.3-.1.2-.3.3-.3.5-.1.1-.2.2-.2.3-.1.2-.3.4-.3.6l-.2.3c-.2.3-.3.4-.4.7l-.1.2c-.2.3-.3.5-.4.8l-.1.1c-.8 1.4-1.6 2.9-2.3 4.3-.2.3-.3.7-.6 1.1-.1.2-.2.3-.3.4-.1.3-.3.4-.3.6s-.2.3-.3.5-.2.3-.3.5c-.1.2-.2.3-.3.6-.1.2-.2.3-.3.4l-.9.1c-.2 0-.4 0-.6.1l-1 .1c-.2 0-.3 0-.5.1l-1.2.2c-.1 0-.3 0-.3.1l-1.4.2h-.2c-2 .3-4.1.6-6 1-.1 0-.2 0-.3.1l-1.2.3c-.2 0-.3.1-.4.1-.3.1-.6.2-.9.2l-.5.1-.9.2c-.2.1-.3.1-.6.2l-.8.2-.6.2-.7.2c-.2.1-.3.1-.6.2l-.6.2-.6.2c-.2.1-.3.1-.6.2-.2.1-.3.1-.6.2l-.5.2-11.9-12.2v-.1c-.2 0-.1-.2-.1-.3zm34.5-22.8l.2-.2.2-.2.2-.2.2-.2.2-.2.2-.2c.1-.1.2-.1.2-.2l.2-.1c.1-.1.2-.1.2-.2l.2-.1.3-.2.2-.1.3-.2.2-.1.3-.2.2-.1.3-.2.2-.1.3-.1s.1-.1.2-.1.2-.1.3-.1.1-.1.2-.1.2-.1.3-.1l.2-.1.3-.1.2-.1.3-.1.2-.1.3-.1s.1 0 .2-.1l.3-.1s.1 0 .2-.1l.3-.1c.1 0 .1 0 .2-.1l.3-.1h.2l.3-.1h.2l.3-.1h.2s.2-.1.3-.1h.1c.1 0 .2 0 .3-.1h.1c.1 0 .2 0 .3-.1h.1c.1 0 .2 0 .3-.1h2.8000000000000003c.3 0 .5.1.7.1.3 0 .5.1.7.1l.8.1.7.1.8.2c.3 0 .4.1.7.2l.8.2.7.2c.3.1.5.2.7.2l.7.2c.3.1.5.2.7.3.3.1.4.2.7.2l.8.3.6.3.8.3.6.3c.3.1.5.3.8.3l.5.3c.3.2.6.3.9.4.2.1.3.2.4.3l1.1.6c.1 0 .2.1.2.1.8.5 1.7 1 2.5 1.6l.3.3.9.7.4.3.8.6c.2.2.3.3.5.4l.7.6v.3l.1.5v.2l.1.5v.2c.1.7.1 1.4.2 2v2.5999999999999996c0 .1 0 .3-.1.3 0 .1 0 .3-.1.3 0 .1 0 .2-.1.3 0 .1 0 .3-.1.3l-.1.3c0 .1-.1.3-.1.3l-.1.3-.1.3-.1.3s-.1.2-.1.3l-.1.3s-.1.2-.1.3l-.1.3s-.1.2-.1.3c-.3-.1-.9-.2-1.4-.3-3.1-.7-9.4-1.9-14.6-1.9h-3.7999999999999994c-.1 0-.3 0-.3.1-.1 0-.2 0-.3.1-.1 0-.3 0-.3.1-.1 0-.2 0-.3.1-.1 0-.2 0-.3.1l-.3-.5c-.1-.1-.1-.3-.2-.3-.1-.2-.3-.4-.3-.6-.1-.1-.2-.3-.2-.3l-.4-.6c-.1-.1-.2-.3-.3-.3-.2-.2-.3-.4-.4-.6-.1-.1-.2-.3-.3-.3-.2-.2-.3-.4-.4-.6-.1-.1-.2-.3-.3-.3l-.5-.6s-.3-.4-.5-.6l-.5-.6s-.3-.3-.4-.5l-.3-.4c-.2-.2-.3-.3-.4-.5l-.3-.4c-.2-.2-.3-.3-.4-.5-.1-.2-.3-.3-.3-.3l-.4-.4-.3-.3-.4-.4-.3-.3c-.1-.2-.3-.3-.3-.3l-.3-.3-.3-.3-.3-.3-.3-.3-.3-.3-.3-.3-.3-.3.1-.2c-2.7-.4-2.6-.4-2.6-.5zm43.7 37.2c-.1.3-.2.5-.2.8 0 .2-.1.3-.1.4l-.3.8c0 .1-.1.3-.1.3l-.3.9-.1.3c-.2.3-.3.8-.4 1.1v.1l-.9 2.4-.1.2c-.2.3-.3.7-.4 1l-.2.3c-.2.3-.3.6-.4.8-.1.2-.2.3-.2.4-.2.3-.3.5-.4.8-.1.2-.2.3-.3.4-.2.3-.3.5-.4.8l-.3.5c-.2.3-.3.4-.4.7l-.3.5-.4.7c-.1.2-.3.3-.3.6-.1.2-.3.4-.3.6-.1.2-.3.4-.3.6-.1.2-.3.4-.3.6l-.4.6c-.1.2-.3.3-.3.5l-23.4-1.9-.3-.6-.3-.7-.3-.6-.3-.7c-.1-.2-.2-.3-.3-.6-.1-.3-.3-.5-.3-.8l-.3-.5c-.1-.3-.3-.5-.3-.8l-.3-.5c-.2-.3-.3-.5-.4-.8l-.3-.5c-.2-.3-.3-.6-.4-.9l-.3-.5c-.2-.3-.3-.6-.4-.8-.1-.2-.3-.4-.3-.6-.2-.3-.3-.5-.4-.8-.2-.3-.3-.5-.5-.9s-.3-.6-.5-.9l-.5-.9c-.1-.2-.3-.3-.3-.5l-.5-.9c-.1-.2-.3-.4-.3-.6l-.5-.8c-.2-.2-.3-.4-.4-.7l-.5-.8c-.2-.3-.3-.5-.5-.7-.2-.3-.3-.4-.4-.7-.2-.3-.3-.5-.6-.9-.2-.2-.3-.4-.4-.6l-.7-.9c-.1-.2-.3-.3-.3-.5.1-.3.3-.4.3-.7.1-.1.1-.3.2-.3.2-.3.3-.5.4-.8l.1-.3.5-1c.2-.3.3-.7.6-1.1l2.8-5.2s0-.1.1-.1c.2-.3.3-.5.4-.8.1-.1.2-.2.2-.3.1-.2.3-.3.3-.5.1-.2.2-.3.3-.4s.2-.3.3-.4l.3-.5c.1-.1.2-.3.3-.3.1-.2.3-.3.3-.5.1-.1.2-.2.2-.3.2-.2.3-.3.4-.6l.2-.3c.2-.2.3-.3.4-.5.1-.1.2-.2.2-.3.2-.2.3-.3.4-.5l.3-.3c.2-.2.3-.3.4-.5l.3-.3.4-.4c.1-.1.2-.3.3-.3.1 0 .2 0 .3-.1l.3-.1h.3s.3 0 .3-.1h.3s.3 0 .3-.1h3.9000000000000004c5.2.1 11 1.2 14 1.9.1 0 .2 0 .3.1h.30000000000000004c.1 0 .2 0 .2.1h.1c.3.1.4.1.6.2.1.1.2.1.2.2 5.7 6.3 8.9 11.8 11.9 20.5l-.2.7c-.3.1-.3.2-.4.4zm-32.5 16.6l-.3.5c-.1.2-.2.3-.3.4s-.2.3-.3.4c-.1.2-.2.3-.3.4-.1.2-.2.3-.3.4-.1.2-.3.3-.3.5-.1.2-.2.3-.3.4-.2.2-.3.3-.4.5-.1.1-.2.3-.3.3-.2.2-.3.4-.4.6-.1.1-.2.3-.3.3l-.5.6c-.1.1-.2.2-.2.3l-.6.8-.1.1c-2.2 2.5-4.6 5.1-6.7 7.4-.8.8-1.4 1.5-2 2.2l-.2.2-.3.4c-.1.1-.2.3-.3.3l-1.3-.5-.3-.1c-.4-.2-.8-.3-1.4-.5l-.3-.1-1.3-.5-.3-.1c-.4-.2-.8-.3-1.4-.6-.1 0-.2-.1-.2-.1l-1.4-.6h-.1c-.4-.2-.9-.4-1.4-.6l-.2-.1c-2-.9-3.7-1.9-5.5-2.8-.1 0-.2-.1-.2-.1l-1.1-.6c-.2-.1-.3-.2-.4-.3l-.9-.5c-.2-.1-.3-.2-.4-.3l-.8-.5c-.2-.1-.3-.3-.5-.3-.3-.2-.4-.3-.7-.4-.2-.1-.3-.3-.5-.3-.3-.2-.4-.3-.7-.4-.2-.1-.3-.3-.5-.3-.2-.2-.4-.3-.6-.4v-.7c0-.3-.1-.6-.1-.8v-6.300000000000001c0-.4 0-.9.1-1.2v-.3l.4-4.6v-.2c.1-.4.1-.9.2-1.4 0-.2.1-.3.1-.4l.2-1.1c0-.2.1-.3.1-.6.1-.3.1-.7.2-.9s.1-.4.2-.7l.2-.9.2-.7c.1-.3.2-.5.2-.8.1-.3.2-.5.2-.8.1-.3.2-.5.2-.8l.3-.8c.1-.3.2-.5.2-.7.2-.1.4-.2.7-.2.2-.1.3-.1.4-.1.3-.1.4-.2.7-.2.2 0 .3-.1.4-.2.3-.1.5-.2.7-.2l.5-.2.8-.2.5-.2c.3-.1.5-.1.7-.2s.4-.1.6-.2l.7-.2.7-.2c.3-.1.5-.1.7-.2l.7-.2c.3-.1.6-.1.8-.2.2 0 .3-.1.6-.1.9-.2 2-.3 3-.5h.1l1.4-.3c.1 0 .2 0 .3-.1.4-.1.8-.1 1.3-.2.1 0 .3 0 .4-.1l1.2-.2c.2 0 .3 0 .4-.1l1.2-.2c.2 0 .3 0 .4-.1l1.1-.2c.2 0 .3 0 .4-.1.3 0 .7-.1 1.1-.1l.8 1.1c.1.1.2.2.2.3l.8 1.2.2.3c.3.4.6.8.9 1.3l.1.2c.3.4.6.8.9 1.4v.1c2 3.2 3.9 6.4 5.4 9.4 0 .1.1.2.1.2l.5 1.1c.1.1.1.3.2.3.2.3.3.7.4.9l.3.5c.1.3.3.5.3.9l.3.5.3.8.3.6.3.7c-.1.2-.2.3-.3.4-.4 1.4-.5 1.5-.6 1.7zm45.6-18.1l-.7 8.5c-.1-.2-.3-.4-.3-.6v-.1l-.4-.6v-.1c-.2-.2-.3-.3-.4-.6l-.1-.1-.5-.5-.1-.1-.5-.5-.1-.1-.6-.5-.1-.1-.6-.5-.1-.1-.7-.5-.1-.1c-.3-.2-.5-.3-.7-.5 0 0-.1 0-.1-.1-.3-.2-.5-.3-.8-.4 0 0-.1 0-.1-.1-.3-.2-.5-.3-.8-.4 0 0-.1 0-.1-.1-.3-.2-.6-.3-.9-.4h-.1c-.3-.2-.6-.3-.8-.4h-.1c-.3-.2-.6-.3-.9-.3-.3-.1-.7-.3-.9-.3-.3-.1-.7-.2-.9-.3-3-8.8-6.1-14.2-11.9-20.6l-.1-.1.1-.3.1-.3c.1-.1.1-.2.1-.3l.1-.3s.1-.2.1-.3l.1-.3c0-.1.1-.3.1-.3s.1-.2.1-.3c0-.2.1-.3.1-.4 0-.1 0-.2.1-.2.1-.2.1-.3.1-.6v-.1c.1-.3.1-.4.1-.7l.1-.7v-4.199999999999999c0-.2 0-.3-.1-.4v-.3c0-.2 0-.3-.1-.4 0-.1 0-.2-.1-.3 0-.1 0-.3-.1-.3l3.1.5 1.1.2c10.3 9.2 16.9 19.3 19.4 30.9zm-46.4-41.9c11.4.3 22.1 7.1 26.9 11.4l-.8-.2-3.3-.6-.6-.5-.6-.5c-.3-.2-.5-.3-.7-.6-.2-.2-.3-.3-.5-.4l-.8-.6-.4-.3c-.3-.3-.7-.4-.9-.7-.1-.1-.2-.2-.3-.2-2.5-1.6-5.1-2.9-7.9-3.8-.1 0-.2 0-.2-.1-.4-.2-.8-.3-1.2-.3l-.3-.1-1.1-.3c-.2 0-.3-.1-.4-.1l-1-.3c-.2 0-.3-.1-.4-.1-.3-.1-.7-.2-1-.2l-.5-.1-.9-.2c-.2 0-.3 0-.5-.1l-.9-.1-.2-.2-.3-.3-.1-.1-.2-.2-.1-.1-.3-.3-.1-.1c-.2.4-.3.4-.4.3zm-39.6 10.2c6.5-7.7 20.2-11.3 30.3-11.3 3.1 0 6.1.3 8.5 1 .2 0 .3.1.6.2h.1l.5.3.3.2c.1.1.2.1.2.2h.1l.2.2.2.2c-.3 0-.9.1-1.4.2h-.1c-.1 0-.2 0-.3.1h-.1c-.1 0-.2 0-.3.1h-.1c-.1 0-.2 0-.3.1h-.1c-.1 0-.2 0-.3.1h-.2c-.1 0-.2 0-.3.1h-.2l-.3.1h-.2s-.2.1-.3.1h-.2l-.3.1c-.1 0-.1 0-.2.1l-.3.1c-.1 0-.1 0-.2.1l-.3.1c-.1 0-.1 0-.2.1l-.3.1s-.1 0-.2.1l-.3.1s-.1.1-.2.1l-.3.1-.2.1-.3.1-.2.1-.3.1-.2.1-.3.1s-.1.1-.2.1-.2.1-.3.1-.1.1-.2.1l-.3.1-.2.1c-.1 0-.2.1-.3.2l-.2.1c-.1 0-.2.1-.3.2l-.2.1c-.1.1-.2.1-.2.2l-.2.1c-.1.1-.2.1-.2.2l-.2.1c-.1.1-.2.1-.2.2-.1 0-.1.1-.2.2l-.2.2-.2.2-.2.2-.2.2-.2.2-.2.2-.2.2-.1.2h-5.7c-.3 0-.7 0-1 .1h-.1c-5.5.4-12.1 1.9-16.7 4.3-.1 0-.2-.1-.2-.1l-.3-.1c-.1 0-.2-.1-.2-.1l-.3-.1s-.2 0-.2-.1l-.3-.1s-.2 0-.2-.1l-.3-.1h-.2l-.3-.1h-.2c-.1 0-.3 0-.3-.1l-.9-.1h-.9999999999999999c-.1 0-.3 0-.3.1h-.1c1.8-.8 1.7-.8 1.7-.7zm-2.3 1.1c1.3-.8 2.5-1.1 3.7-1.1h.7999999999999999c.2 0 .3 0 .4.1h.2c.1 0 .3 0 .3.1h.2c.1 0 .2 0 .3.1.1 0 .2 0 .2.1l.3.1c.1 0 .2 0 .2.1l.3.1.2.1.3.1.2.1s.1.1.2.1l-.3.3-.3.3-.3.3-.3.3-.3.3-.3.3-.3.3-.3.3-.3.3-.3.3-.3.3-.3.3-.3.3c-.1.1-.2.3-.3.3l-.3.3s-.2.3-.3.3c-.1.1-.2.2-.2.3-.1.1-.2.3-.3.3-.1.1-.2.2-.2.3-.1.1-.2.3-.3.3l-.2.3c-.1.1-.2.3-.3.3l-.2.3c-.1.1-.2.3-.3.3l-.2.3c-.1.1-.2.3-.2.3l-.2.3c-.1.1-.2.3-.2.3l-.2.3c-.1.1-.1.3-.2.3l-.2.3c-.1.1-.1.3-.2.3l-.2.3-.2.3c-.1.1-.1.3-.2.3l-.2.3c-.1.2-.1.3-.2.4l-.1.3-.3.5v.1l-.3.6c-.1.2-.2.3-.3.6v.1c-.1.2-.2.3-.2.5v.1c-.1.2-.2.3-.2.5 0 .1 0 .1-.1.2-.1.2-.1.3-.2.4 0 .1 0 .1-.1.2-.1.2-.1.3-.2.4 0 .1 0 .1-.1.2-.1.2-.1.3-.2.4 0 .1 0 .1-.1.2-.1.2-.1.3-.2.4v.2c-.1.2-.1.3-.2.4 0 .1 0 .1-.1.2 0 .1-.1.3-.1.3 0 .1 0 .1-.1.2 0 .1-.1.3-.1.3 0 .1 0 .1-.1.2l-.1.3c-.2 0-.3.1-.4.1l-.5.2-.5.2c-.2.1-.3.1-.4.2-.2.1-.3.1-.4.2-.2.1-.3.1-.4.2-.2.1-.3.2-.4.3s-.3.2-.4.2c-.2.1-.3.2-.4.3-.1.1-.3.2-.3.2-.2.1-.3.2-.4.3-.1.1-.3.2-.3.2-.2.1-.3.2-.4.3-.1.1-.3.2-.3.3-.2.1-.3.2-.4.3l-.3.3c-.2.1-.3.2-.4.3l-.3.3c-.2.1-.3.3-.3.3-.1.1-.2.2-.3.2-.2.1-.3.3-.3.3l-.2.2c-.2.1-.3.3-.3.3l-.2.2c-.2.1-.3.3-.3.3l-.2.2-.4.4-.1.1-.3.4-.1.1c-.2.2-.3.3-.4.5s-.3.3-.5.6c0-.1-.1-.2-.1-.2l-.1-.3s-.1-.2-.1-.3l-.1-.3s0-.2-.1-.3c0-.1 0-.2-.1-.3v-3.9999999999999996c0-.1 0-.2.1-.3v-.2s0-.2.1-.3v-.2l.1-.3v-.1c0-.1.1-.3.1-.3.1-.3.2-.4.2-.7l.2-.5c0-.1 0-.2.1-.2 3.6-8.4 11.2-16.3 15.5-18.7zm-18.8 55.7c-3.5-10.1-3.7-25.4 4-36.2v.1c0 .1 0 .1-.1.2 0 .1 0 .2-.1.2v.2c0 .1 0 .2-.1.3v.2c0 .1 0 .2-.1.3v.2c0 .2-.1.3-.1.4v.2c0 .1 0 .2-.1.3v3.4999999999999996c0 .1 0 .2.1.3v.2c0 .2.1.3.1.4v.1l.2.5-.2.3c-.1.1-.2.3-.2.3-.1.1-.1.3-.2.3-.1.2-.1.3-.2.4-.1.1-.1.3-.2.3-.1.2-.1.3-.2.4-.1.1-.1.3-.2.3-.1.2-.1.3-.2.4-.1.1-.1.3-.1.3-.1.2-.1.3-.2.4 0 .1-.1.3-.1.3-.1.2-.1.3-.2.4 0 .1-.1.3-.1.3 0 .2-.1.3-.2.4 0 .1-.1.3-.1.3 0 .2-.1.3-.1.4 0 .1-.1.3-.1.3 0 .2-.1.3-.1.4l-.1.3-.1.5c0 .1 0 .2-.1.3l-.1.5c0 .1 0 .2-.1.3l-.1.5c0 .1 0 .2-.1.3l-.1.5v.3l-.1.6v.2l-.1.6v.1c-.2 1.8-.3 3.6-.3 5.3v6.1000000000000005c0 .2 0 .3.1.5v.1c0 .2 0 .3.1.5l-.3.7c0 .1 0 .1-.1.2-.1.2-.1.3-.2.6v.2c-.1.5-.2 1-.3 1.6v1.1c0 .3 0 .6.1.8l1-.3zm.4 2c-.2-.6-.3-1.2-.3-1.8v-.2c-.1-.6-.1-1.2-.1-1.7v-.1c0-.3 0-.4.1-.7v-.2c0-.2.1-.3.1-.6 0-.1 0-.2.1-.3l.1-.5.1-.3c.1-.2.1-.3.2-.4 0-.1 0-.1.1-.2l.1.3c.1.1.1.3.2.3.1.1.1.3.2.3l.2.3c.1.1.1.3.2.3l.2.3c.1.1.1.3.2.3l.2.3c.1.1.1.3.2.3l.2.3.2.3.2.3.2.3.2.3.2.3.2.3.2.3.2.3.2.3.2.3c.1.1.2.2.2.3l.2.3c.1.1.2.2.2.3.1.1.1.2.2.2.1.1.2.2.2.3.1.1.1.2.2.2l.3.3.2.2.3.3.2.2.3.3.2.2.3.3.2.2.3.3c.1 0 .1.1.2.2l.3.3.1.1c.1.1.3.2.3.3 0 0 .1 0 .1.1.4.3.8.7 1.2.9.1.1.3.2.3.3h.1c.1.1.3.2.3.3 0 0 .1 0 .1.1.1.1.2.2.3.2 0 0 .1 0 .1.1l.3.2.1.1.3.2.1.1.3.2s.1 0 .1.1l.3.2s.1 0 .1.1l.3.2s.1 0 .1.1c.1 0 .2.1.2.1v2c0 .2 0 .3.1.5 0 .2 0 .3.1.4 0 .2 0 .3.1.5 0 .1 0 .2.1.3 0 .2 0 .3.1.4 0 .1 0 .2.1.3 0 .2.1.3.1.4 0 .1 0 .2.1.3 0 .1.1.3.1.3l.1.3c0 .1.1.3.1.3l.1.3c0 .1.1.3.1.3s.1.2.1.3c0 .1.1.3.1.3l.1.3c0 .1.1.3.1.3l.1.3c0 .1.1.3.1.3l.1.3.1.3.1.3.1.3.1.3s.1.2.1.3l.1.3.1.3.1.3s.1.2.1.3l.1.3.2.3.1.3.2.3.1.3.2.3.1.3.2.3.1.3.2.3.1.3.2.3.1.3.2.3c0 .1.1.2.1.2l.2.3c0 .1.1.2.1.2l.2.3.1.2.2.3.1.2.2.3.1.2.2.3.1.2.2.3.1.2.1.2-4.8-1.4c-9-7.4-14-16.3-15.6-25zm13.3 23.5l4.8 1.4c1.8 1.4 3.9 2.9 6.3 4.3h.1c.1.1.3.2.3.3l.3.2s.3.1.3.2c.1.1.3.2.3.2l.3.2.4.3.3.2c.2.1.3.2.4.3.1.1.2.1.3.1.2.1.3.2.4.3l.3.1c.2.1.3.2.4.3l.3.1c.2.1.3.2.4.3l.3.1c.2.1.3.2.4.2l.3.1c.2.1.3.2.4.2l.3.1c.2.1.3.1.4.2l.3.1c.2.1.3.1.4.2l.3.1c.2.1.3.1.4.2.1 0 .3.1.3.1.2.1.3.1.4.2.1 0 .3.1.3.1.2 0 .3.1.4.1.1 0 .3.1.3.1.2 0 .3.1.4.1.1 0 .3.1.3.1.2 0 .3.1.4.1.2 0 .3.1.4.1.1 0 .3.1.3.1.2 0 .3.1.4.1.1 0 .3.1.3.1.2 0 .3.1.4.1.1 0 .3.1.3.1.2 0 .3 0 .4.1.1 0 .3 0 .3.1.2 0 .3 0 .4.1h.3l.1.3s.1.1.1.2c.1.1.1.3.2.3v.1c.1.2.2.3.3.4 0 0 0 .1.1.1.1.1.2.2.2.3l.1.1c.1.1.2.2.2.3l.1.1.3.3.1.1.3.3.1.1.3.3.1.1.3.3.1.1c.1.1.3.2.3.3 0 0 .1 0 .1.1.1.1.3.2.3.3l.1.1.4.3c.5.4 1.1.8 1.6 1.1-18.8-3.5-25.6-11.2-31.5-18.1zm32.6 17.2l-.5-.3-.2-.1c-.1-.1-.3-.2-.3-.3l-.2-.1c-.1-.1-.3-.2-.3-.3-.1-.1-.1-.1-.2-.1l-.3-.3-.2-.2c-.1-.1-.2-.2-.3-.2l-.2-.2c-.1-.1-.2-.2-.3-.2l-.2-.2c-.1-.1-.2-.2-.3-.2l-.2-.2c-.1-.1-.2-.2-.3-.2l-.2-.2-.2-.2-.2-.2c-.1-.1-.1-.2-.2-.2l-.2-.2c-.1-.1-.1-.2-.2-.2l-.2-.2c-.1-.1-.1-.2-.2-.2-.1-.1-.1-.2-.2-.2-.1-.1-.1-.2-.2-.2 0-.1-.1-.2-.1-.2 0-.1-.1-.2-.1-.2 0-.1-.1-.2-.1-.2 0-.1-.1-.2-.1-.2 0-.1-.1-.2-.1-.2l-.1-.2c.2-.1.3-.1.4-.2.2-.1.3-.1.4-.2.2-.1.3-.1.4-.2.2-.1.3-.1.4-.2.2-.1.3-.1.4-.2.2-.1.3-.1.4-.2.2-.1.3-.2.4-.2.2-.1.3-.2.4-.2.2-.1.3-.2.4-.2.2-.1.3-.2.4-.3.2-.1.3-.2.4-.2.2-.1.3-.2.4-.3.2-.1.3-.2.4-.3l.5-.3c.1-.1.3-.2.3-.3l.5-.3c.1-.1.3-.2.3-.2.2-.1.3-.3.5-.3l.3-.2 2.2-1.5.1-.1.6-.5.3-.2c.2-.2.3-.3.6-.4l.3-.3c.2-.2.3-.3.6-.4l.3-.3.6-.5.3-.3.6.3c.2.1.3.2.6.3.2.1.4.2.6.2.2.1.4.2.6.2l.7.2.6.2c.3.1.5.1.7.2.3 0 .4.1.7.2l.8.1.7.1s.6.1.8.1l.6.1 1 .1h4.9c.3 0 .5 0 .8-.1h.4l.8-.1c.2 0 .3 0 .4-.1.3 0 .5-.1.9-.1.2 0 .3 0 .4-.1.3 0 .6-.1.8-.1l.5-.1c.3 0 .6-.1.8-.2l.5-.1.8-.2v4.699999999999998c0 .1 0 .2-.1.3 0 .1 0 .2-.1.3 0 .1 0 .3-.1.3 0 .1 0 .2-.1.3 0 .1-.1.3-.1.3 0 .1 0 .2-.1.2 0 .2-.1.3-.1.4-.2.5-.3 1-.4 1.4 0 .1 0 .1-.1.2l-.1.3c0 .1-.1.2-.1.2l-.2.3c0 .1-.1.2-.1.2-6.6 4.1-13.4 4.9-17.9 4.9-2.1 1.2-5.5.7-8.3-.1zm27.8-3.7c.2-.3.3-.7.4-.9 0 0 0-.1.1-.1.1-.3.3-.6.3-.9v-.1l.3-1v-.1c.1-.3.2-.7.2-1.1v-.1c.1-.3.1-.8.2-1.2v-.1l.1-1.3v-1.3c0-.4-.1-.8-.1-1.3v-.1c.3-.1.4-.3.7-.3.2-.1.3-.3.6-.3.3-.2.4-.3.7-.4.2-.1.3-.3.5-.3l.7-.5c.2-.1.3-.3.5-.3l.7-.5c.2-.2.3-.3.5-.4l.6-.5c.2-.2.3-.3.5-.4l.6-.5c.2-.2.3-.3.5-.4l.6-.6.5-.5.5-.5c.8-.8 1.4-1.6 2.1-2.5.1-.1.2-.3.3-.3.2-.3.3-.5.5-.7l.3-.4c.2-.3.3-.5.5-.7.1-.2.3-.3.3-.5.2-.3.3-.5.4-.7.1-.2.3-.3.3-.5.2-.3.3-.4.4-.7.1-.2.2-.3.3-.6.1-.3.3-.4.3-.7l.3-.6.3-.7.3-.6.7-.1c.1 0 .3 0 .3-.1l.9-.2c.3-.1.7-.2.9-.3l.3-.1.7-.2.3-.1c.2-.1.4-.2.6-.2l.3-.1.6-.3.3-.1.6-.3.3-.1.6-.3.3-.1c.2-.1.3-.2.6-.3.1 0 .2-.1.3-.2.2-.1.3-.3.6-.3.1 0 .2-.1.2-.2.2-.1.3-.3.5-.3l.2-.2.5-.4.2-.2c.2-.2.3-.3.5-.4l.2-.2c.2-.2.3-.3.5-.4l.2-.2.4-.4c.1-.1.1-.2.2-.2l.3-.3-.1.5c0 .1 0 .2-.1.3 0 .2-.1.3-.1.4l-.1.3-.3 1.5v.1l-.2.5-.1.3c0 .2-.1.3-.1.4s-.1.3-.1.4c0 .1-.1.3-.1.3l-.2.5-.1.3c-.1.2-.2.4-.2.6-2.2 6.3-9.1 20.9-28.1 26.6zm35-42.4c-1.1 6.5-3.6 12.5-6.5 15.9l-.3-.1c0-.1.1-.3.1-.3 0-.1.1-.3.1-.3l.2-.5c0-.1.1-.3.1-.3l.2-.5.2-.7c0-.2.1-.3.1-.4 0-.2.1-.3.1-.4s.1-.3.1-.4.1-.3.1-.4.1-.3.1-.4c0-.1 0-.3.1-.3 0-.2.1-.3.1-.4 0-.1 0-.2.1-.3v-1.1s.1-.1.1-.2l.1-.1c0-.1.1-.2.1-.2l.1-.2.1-.3.1-.2.1-.3s.1-.1.1-.2l.1-.3.1-.2s.1-.3.2-.3c0-.1 0-.1.1-.2.1-.2.1-.3.2-.4v-.1l.2-.5c1.5-4.5 2.9-11.7 1.2-18.6l.7-8.5c2.1 6.5 2.8 14.1 1.5 21.7z"/><defs><filter id="bI" filterUnits="userSpaceOnUse" x="488.6" y="299.1" width="106.5" height="73"><feColorMatrix values="1 0 0 0 0 0 1 0 0 0 0 0 1 0 0 0 0 0 1 0"/></filter></defs><mask maskUnits="userSpaceOnUse" x="488.6" y="299.1" width="106.5" height="73" id="bK"><g filter="url(#bI)"><radialGradient id="bJ" cx="615.003" cy="196.818" r="83.604" gradientTransform="matrix(.727 0 0 .727 90 168.154)" gradientUnits="userSpaceOnUse"><stop offset="0" stop-color="#fff"/><stop offset=".081" stop-color="#FAFAFA"/><stop offset=".176" stop-color="#ECECEC"/><stop offset=".28" stop-color="#D4D4D4"/><stop offset=".389" stop-color="#B2B2B2"/><stop offset=".503" stop-color="#878787"/><stop offset=".62" stop-color="#525252"/><stop offset=".738" stop-color="#151515"/><stop offset=".775"/></radialGradient><path fill="url(#bJ)" d="M524.8 310.9c-14.5 7-26.8 16.3-36.2 26.8 8.2 20.1 28 34.3 51.2 34.3 30.5 0 55.3-24.7 55.3-55.3 0-5.5-.9-10.8-2.3-15.8-20.3-4.2-44.6-1.3-68 10z"/></g></mask><path mask="url(#bK)" fill="#fff" d="M524.8 310.9c-14.5 7-26.8 16.3-36.2 26.8 8.2 20.1 28 34.3 51.2 34.3 30.5 0 55.3-24.7 55.3-55.3 0-5.5-.9-10.8-2.3-15.8-20.3-4.2-44.6-1.3-68 10z"/><path d="M248.1 428.3s-97.3-158.5 72-232c0 0 119.4-40.4 217 57.9" fill="none"/><text transform="matrix(-.253 -.968 .968 -.253 231.051 392.723)"><tspan x="0" y="0" font-family="'BankGothic-Light'" font-size="47">S</tspan><tspan x="35.5" y="0" font-family="'BankGothic-Light'" font-size="47" rotate="10.1">o</tspan><tspan x="66.2" y="5.4" font-family="'BankGothic-Light'" font-size="47" rotate="21.2">c</tspan><tspan x="91.9" y="15.2" font-family="'BankGothic-Light'" font-size="47" rotate="33.3">c</tspan><tspan x="115" y="30.2" font-family="'BankGothic-Light'" font-size="47" rotate="45.6">e</tspan><tspan x="133.2" y="48.7" font-family="'BankGothic-Light'" font-size="47" rotate="57.2">r</tspan><tspan x="155.2" y="87.3" font-family="'BankGothic-Light'" font-size="47" rotate="72.6">b</tspan><tspan x="163.8" y="114.8" font-family="'BankGothic-Light'" font-size="47" rotate="79.8">a</tspan><tspan x="168" y="142.2" font-family="'BankGothic-Light'" font-size="47" rotate="94.1">l</tspan><tspan x="166.3" y="166.5" font-family="'BankGothic-Light'" font-size="47" rotate="100.4">l</tspan><tspan x="162.1" y="190.5" font-family="'BankGothic-Light'" font-size="47" rotate="107">s</tspan><tspan x="153.3" y="218.4" font-family="'BankGothic-Light'" font-size="47" rotate="112.8">.</tspan><tspan x="147.3" y="234.1" font-family="'BankGothic-Light'" font-size="45" rotate="119.3">C</tspan><tspan x="131.5" y="262.7" font-family="'BankGothic-Light'" font-size="45" rotate="128.8">O</tspan><tspan x="108.4" y="291.8" font-family="'BankGothic-Light'" font-size="45" rotate="139">M</tspan></text></svg>